<svg xmlns="http://www.w3.org/2000/svg" xmlns:xlink="http://www.w3.org/1999/xlink" width="591" zoomAndPan="magnify" viewBox="0 0 443.25 443.249984" height="591" preserveAspectRatio="xMidYMid meet" version="1.0"><defs><clipPath id="0e15ac70c8"><path d="M 166.433594 118 L 229.210938 118 L 229.210938 191.859375 L 166.433594 191.859375 Z M 166.433594 118 " clip-rule="nonzero"/></clipPath><clipPath id="bb458a30ab"><path d="M 118.003906 128.890625 L 118.003906 182.664062 C 118.003906 256.855469 178.148438 317 252.339844 317 L 306.113281 317 C 380.304688 317 440.445312 256.855469 440.445312 182.664062 L 440.445312 128.890625 C 440.445312 54.699219 380.304688 -5.441406 306.113281 -5.441406 L 252.339844 -5.441406 C 178.148438 -5.441406 118.003906 54.699219 118.003906 128.890625 Z M 118.003906 128.890625 " clip-rule="nonzero"/></clipPath><clipPath id="5bc63aea5d"><path d="M 245.351562 118 L 318.890625 118 L 318.890625 191.859375 L 245.351562 191.859375 Z M 245.351562 118 " clip-rule="nonzero"/></clipPath><clipPath id="0798daf88e"><path d="M 118.003906 128.890625 L 118.003906 182.664062 C 118.003906 256.855469 178.148438 317 252.339844 317 L 306.113281 317 C 380.304688 317 440.445312 256.855469 440.445312 182.664062 L 440.445312 128.890625 C 440.445312 54.699219 380.304688 -5.441406 306.113281 -5.441406 L 252.339844 -5.441406 C 178.148438 -5.441406 118.003906 54.699219 118.003906 128.890625 Z M 118.003906 128.890625 " clip-rule="nonzero"/></clipPath><clipPath id="590e8bb2c8"><path d="M 335.035156 118 L 397.8125 118 L 397.8125 191.859375 L 335.035156 191.859375 Z M 335.035156 118 " clip-rule="nonzero"/></clipPath><clipPath id="82fe7ea6ee"><path d="M 118.003906 128.890625 L 118.003906 182.664062 C 118.003906 256.855469 178.148438 317 252.339844 317 L 306.113281 317 C 380.304688 317 440.445312 256.855469 440.445312 182.664062 L 440.445312 128.890625 C 440.445312 54.699219 380.304688 -5.441406 306.113281 -5.441406 L 252.339844 -5.441406 C 178.148438 -5.441406 118.003906 54.699219 118.003906 128.890625 Z M 118.003906 128.890625 " clip-rule="nonzero"/></clipPath></defs><g clip-path="url(#0e15ac70c8)"><g clip-path="url(#bb458a30ab)"><path fill="#ffffff" d="M 166.867188 167.988281 L 188.644531 167.988281 C 189.238281 170.515625 190.332031 172.332031 191.90625 173.429688 C 193.492188 174.539062 195.839844 175.089844 198.964844 175.089844 C 201.578125 175.089844 203.644531 174.636719 205.136719 173.738281 C 206.636719 172.84375 207.386719 171.601562 207.386719 170.027344 C 207.386719 167.503906 204.246094 165.449219 197.96875 163.867188 C 196.707031 163.558594 195.746094 163.320312 195.082031 163.160156 C 189.9375 161.835938 185.839844 160.628906 182.800781 159.539062 C 179.75 158.453125 177.539062 157.433594 176.152344 156.484375 C 173.46875 154.5625 171.457031 152.257812 170.109375 149.574219 C 168.773438 146.890625 168.101562 143.835938 168.101562 140.394531 C 168.101562 133.480469 170.707031 128.050781 175.914062 124.105469 C 181.117188 120.160156 188.285156 118.191406 197.402344 118.191406 C 206.363281 118.191406 213.417969 120.078125 218.558594 123.847656 C 223.703125 127.621094 226.605469 133.023438 227.269531 140.058594 L 206.019531 140.058594 C 205.667969 138.011719 204.757812 136.480469 203.292969 135.46875 C 201.828125 134.460938 199.734375 133.957031 197.023438 133.957031 C 194.621094 133.957031 192.839844 134.347656 191.675781 135.140625 C 190.507812 135.933594 189.925781 137.125 189.925781 138.734375 C 189.925781 141.039062 192.980469 142.96875 199.101562 144.507812 C 199.644531 144.667969 200.050781 144.78125 200.335938 144.84375 C 201.21875 145.0625 202.558594 145.398438 204.359375 145.832031 C 212.472656 147.894531 217.769531 149.75 220.261719 151.425781 C 223.359375 153.46875 225.617188 155.808594 227.03125 158.429688 C 228.453125 161.050781 229.160156 164.140625 229.160156 167.707031 C 229.160156 175.398438 226.46875 181.320312 221.089844 185.453125 C 215.707031 189.59375 208 191.65625 197.96875 191.65625 C 188.71875 191.65625 181.390625 189.59375 175.980469 185.453125 C 170.566406 181.320312 167.53125 175.496094 166.867188 167.988281 " fill-opacity="1" fill-rule="nonzero"/></g></g><g clip-path="url(#5bc63aea5d)"><g clip-path="url(#0798daf88e)"><path fill="#ffffff" d="M 268.539062 154.925781 C 268.539062 161.519531 269.636719 166.363281 271.851562 169.457031 C 274.058594 172.546875 277.511719 174.097656 282.214844 174.097656 C 286.886719 174.097656 290.3125 172.554688 292.484375 169.480469 C 294.664062 166.402344 295.757812 161.554688 295.757812 154.925781 C 295.757812 148.269531 294.664062 143.402344 292.484375 140.320312 C 290.3125 137.25 286.886719 135.707031 282.214844 135.707031 C 277.511719 135.707031 274.058594 137.257812 271.851562 140.347656 C 269.636719 143.4375 268.539062 148.300781 268.539062 154.925781 Z M 245.957031 154.925781 C 245.957031 143.5625 249.199219 134.601562 255.679688 128.042969 C 262.167969 121.472656 271.015625 118.191406 282.214844 118.191406 C 293.390625 118.191406 302.203125 121.472656 308.675781 128.042969 C 315.144531 134.601562 318.382812 143.5625 318.382812 154.925781 C 318.382812 166.257812 315.144531 175.210938 308.675781 181.789062 C 302.203125 188.367188 293.390625 191.65625 282.214844 191.65625 C 271.015625 191.65625 262.167969 188.367188 255.679688 181.789062 C 249.199219 175.210938 245.957031 166.257812 245.957031 154.925781 " fill-opacity="1" fill-rule="nonzero"/></g></g><g clip-path="url(#590e8bb2c8)"><g clip-path="url(#82fe7ea6ee)"><path fill="#ffffff" d="M 335.035156 167.988281 L 356.804688 167.988281 C 357.40625 170.515625 358.492188 172.332031 360.074219 173.429688 C 361.652344 174.539062 364 175.089844 367.125 175.089844 C 369.746094 175.089844 371.804688 174.636719 373.304688 173.738281 C 374.804688 172.84375 375.554688 171.601562 375.554688 170.027344 C 375.554688 167.503906 372.414062 165.449219 366.128906 163.867188 C 364.867188 163.558594 363.910156 163.320312 363.242188 163.160156 C 358.101562 161.835938 354.007812 160.628906 350.960938 159.539062 C 347.914062 158.453125 345.699219 157.433594 344.3125 156.484375 C 341.628906 154.5625 339.617188 152.257812 338.273438 149.574219 C 336.933594 146.890625 336.269531 143.835938 336.269531 140.394531 C 336.269531 133.480469 338.867188 128.050781 344.074219 124.105469 C 349.277344 120.160156 356.445312 118.191406 365.5625 118.191406 C 374.523438 118.191406 381.578125 120.078125 386.722656 123.847656 C 391.863281 127.621094 394.773438 133.023438 395.429688 140.058594 L 374.171875 140.058594 C 373.828125 138.011719 372.925781 136.480469 371.453125 135.46875 C 369.992188 134.460938 367.902344 133.957031 365.183594 133.957031 C 362.789062 133.957031 361 134.347656 359.832031 135.140625 C 358.667969 135.933594 358.085938 137.125 358.085938 138.734375 C 358.085938 141.039062 361.140625 142.96875 367.265625 144.507812 C 367.804688 144.667969 368.21875 144.78125 368.496094 144.84375 C 369.378906 145.0625 370.726562 145.398438 372.519531 145.832031 C 380.632812 147.894531 385.929688 149.75 388.425781 151.425781 C 391.515625 153.46875 393.777344 155.808594 395.199219 158.429688 C 396.613281 161.050781 397.324219 164.140625 397.324219 167.707031 C 397.324219 175.398438 394.632812 181.320312 389.257812 185.453125 C 383.878906 189.59375 376.164062 191.65625 366.128906 191.65625 C 356.886719 191.65625 349.550781 189.59375 344.144531 185.453125 C 338.734375 181.320312 335.695312 175.496094 335.035156 167.988281 " fill-opacity="1" fill-rule="nonzero"/></g></g><path fill="#ffffff" d="M 310.484375 333.886719 C 306.820312 329.796875 295.539062 319.582031 287.457031 313.492188 C 279.507812 307.265625 266.535156 298.832031 261.480469 296.21875 C 253.21875 291.921875 240.765625 292.398438 233.03125 297.597656 C 228.402344 300.808594 222.433594 305.441406 215.464844 312.703125 C 215.429688 312.746094 215.386719 312.789062 215.347656 312.824219 C 209.328125 319.167969 199.628906 320.238281 192.386719 315.335938 C 179.773438 306.792969 167.285156 296.472656 155.664062 284.847656 C 144.039062 273.226562 133.71875 260.738281 125.175781 248.125 C 120.269531 240.882812 121.34375 231.1875 127.6875 225.164062 C 127.730469 225.128906 127.773438 225.085938 127.808594 225.046875 C 135.078125 218.082031 139.703125 212.113281 142.914062 207.480469 C 148.117188 199.746094 148.589844 187.296875 144.292969 179.03125 C 141.683594 173.976562 133.25 161.003906 127.023438 153.058594 C 120.929688 144.972656 110.71875 133.691406 106.625 130.027344 C 99.933594 123.996094 88.632812 122.425781 80.75 126.71875 C 76.015625 129.394531 69.8125 133.363281 62.253906 140.011719 C 62.058594 140.191406 61.855469 140.371094 61.660156 140.550781 C 26.804688 170.53125 49.75 254.195312 118.082031 322.425781 C 186.3125 390.757812 269.976562 413.703125 299.964844 378.847656 C 300.144531 378.652344 300.324219 378.449219 300.503906 378.253906 C 307.144531 370.691406 311.121094 364.492188 313.792969 359.757812 C 318.085938 351.867188 316.511719 340.570312 310.484375 333.886719 Z M 310.484375 333.886719 " fill-opacity="1" fill-rule="nonzero"/><path fill="#ffffff" d="M 155.660156 284.847656 C 144.035156 273.226562 133.714844 260.738281 125.171875 248.125 C 120.265625 240.882812 121.339844 231.1875 127.683594 225.164062 C 127.726562 225.128906 127.765625 225.085938 127.804688 225.046875 C 135.074219 218.082031 139.699219 212.113281 142.910156 207.480469 C 148.109375 199.746094 148.585938 187.296875 144.289062 179.03125 C 141.675781 173.976562 133.242188 161.003906 127.015625 153.058594 C 120.925781 144.972656 110.710938 133.691406 106.621094 130.027344 C 99.933594 123.996094 88.632812 122.425781 80.75 126.71875 C 76.015625 129.394531 69.8125 133.363281 62.253906 140.011719 C 62.058594 140.191406 61.855469 140.371094 61.660156 140.550781 C 26.804688 170.53125 49.75 254.195312 118.082031 322.425781 C 122.3125 326.660156 126.597656 330.722656 130.929688 334.601562 C 152.007812 331.492188 171.632812 323.910156 188.804688 312.851562 C 177.410156 304.816406 166.179688 295.367188 155.664062 284.847656 Z M 155.660156 284.847656 " fill-opacity="1" fill-rule="nonzero"/></svg>