<svg xmlns="http://www.w3.org/2000/svg" xmlns:xlink="http://www.w3.org/1999/xlink" width="591" zoomAndPan="magnify" viewBox="0 0 443.25 443.249984" height="591" preserveAspectRatio="xMidYMid meet" version="1.0"><defs><clipPath id="639bc42731"><path d="M 0 0 L 441.753906 0 L 441.753906 441.753906 L 0 441.753906 Z M 0 0 " clip-rule="nonzero"/></clipPath><clipPath id="bf0cd48891"><path d="M 31 160 L 133.945312 160 L 133.945312 282 L 31 282 Z M 31 160 " clip-rule="nonzero"/></clipPath><clipPath id="754820d6e6"><path d="M -49.683594 178.3125 L -49.683594 267.105469 C -49.683594 389.617188 49.628906 488.929688 172.136719 488.929688 L 260.933594 488.929688 C 383.445312 488.929688 482.757812 389.617188 482.757812 267.105469 L 482.757812 178.3125 C 482.757812 55.800781 383.445312 -43.511719 260.933594 -43.511719 L 172.136719 -43.511719 C 49.628906 -43.511719 -49.683594 55.800781 -49.683594 178.3125 Z M -49.683594 178.3125 " clip-rule="nonzero"/></clipPath><clipPath id="0484a1b443"><path d="M 161 160 L 282 160 L 282 282 L 161 282 Z M 161 160 " clip-rule="nonzero"/></clipPath><clipPath id="ff93cf7b2d"><path d="M -49.683594 178.3125 L -49.683594 267.105469 C -49.683594 389.617188 49.628906 488.929688 172.136719 488.929688 L 260.933594 488.929688 C 383.445312 488.929688 482.757812 389.617188 482.757812 267.105469 L 482.757812 178.3125 C 482.757812 55.800781 383.445312 -43.511719 260.933594 -43.511719 L 172.136719 -43.511719 C 49.628906 -43.511719 -49.683594 55.800781 -49.683594 178.3125 Z M -49.683594 178.3125 " clip-rule="nonzero"/></clipPath><clipPath id="9d2f89a150"><path d="M 308.691406 160 L 412 160 L 412 282 L 308.691406 282 Z M 308.691406 160 " clip-rule="nonzero"/></clipPath><clipPath id="457c45e85f"><path d="M -49.683594 178.3125 L -49.683594 267.105469 C -49.683594 389.617188 49.628906 488.929688 172.136719 488.929688 L 260.933594 488.929688 C 383.445312 488.929688 482.757812 389.617188 482.757812 267.105469 L 482.757812 178.3125 C 482.757812 55.800781 383.445312 -43.511719 260.933594 -43.511719 L 172.136719 -43.511719 C 49.628906 -43.511719 -49.683594 55.800781 -49.683594 178.3125 Z M -49.683594 178.3125 " clip-rule="nonzero"/></clipPath></defs><g clip-path="url(#639bc42731)"><path fill="#ba4058" d="M 441.746094 220.871094 C 441.746094 224.488281 441.65625 228.101562 441.480469 231.710938 C 441.300781 235.320312 441.035156 238.925781 440.683594 242.523438 C 440.328125 246.121094 439.886719 249.707031 439.355469 253.28125 C 438.824219 256.855469 438.207031 260.417969 437.5 263.964844 C 436.796875 267.507812 436.003906 271.035156 435.125 274.539062 C 434.25 278.046875 433.285156 281.53125 432.234375 284.988281 C 431.1875 288.449219 430.050781 291.878906 428.835938 295.28125 C 427.617188 298.6875 426.316406 302.058594 424.933594 305.398438 C 423.550781 308.738281 422.085938 312.039062 420.539062 315.308594 C 418.996094 318.574219 417.371094 321.804688 415.664062 324.992188 C 413.960938 328.179688 412.179688 331.324219 410.320312 334.425781 C 408.464844 337.523438 406.53125 340.578125 404.523438 343.582031 C 402.515625 346.589844 400.433594 349.542969 398.28125 352.445312 C 396.125 355.351562 393.902344 358.199219 391.609375 360.992188 C 389.316406 363.789062 386.957031 366.523438 384.527344 369.203125 C 382.101562 371.878906 379.609375 374.496094 377.054688 377.054688 C 374.496094 379.609375 371.878906 382.101562 369.203125 384.527344 C 366.523438 386.957031 363.789062 389.316406 360.992188 391.609375 C 358.199219 393.902344 355.351562 396.125 352.445312 398.28125 C 349.542969 400.433594 346.589844 402.515625 343.582031 404.523438 C 340.578125 406.53125 337.523438 408.464844 334.425781 410.320312 C 331.324219 412.179688 328.179688 413.960938 324.992188 415.664062 C 321.804688 417.371094 318.574219 418.996094 315.308594 420.539062 C 312.039062 422.085938 308.738281 423.550781 305.398438 424.933594 C 302.058594 426.316406 298.6875 427.617188 295.28125 428.835938 C 291.878906 430.050781 288.449219 431.1875 284.988281 432.234375 C 281.53125 433.285156 278.046875 434.25 274.539062 435.125 C 271.035156 436.003906 267.507812 436.796875 263.964844 437.5 C 260.417969 438.207031 256.855469 438.824219 253.28125 439.355469 C 249.707031 439.886719 246.121094 440.328125 242.523438 440.683594 C 238.925781 441.035156 235.320312 441.300781 231.710938 441.480469 C 228.101562 441.65625 224.488281 441.746094 220.871094 441.746094 C 217.257812 441.746094 213.644531 441.65625 210.035156 441.480469 C 206.425781 441.300781 202.820312 441.035156 199.222656 440.683594 C 195.625 440.328125 192.039062 439.886719 188.464844 439.355469 C 184.886719 438.824219 181.328125 438.207031 177.78125 437.5 C 174.238281 436.796875 170.710938 436.003906 167.207031 435.125 C 163.699219 434.25 160.214844 433.285156 156.757812 432.234375 C 153.296875 431.1875 149.867188 430.050781 146.464844 428.835938 C 143.058594 427.617188 139.6875 426.316406 136.347656 424.933594 C 133.007812 423.550781 129.707031 422.085938 126.4375 420.539062 C 123.167969 418.996094 119.941406 417.371094 116.753906 415.664062 C 113.566406 413.960938 110.421875 412.179688 107.320312 410.320312 C 104.222656 408.464844 101.167969 406.53125 98.164062 404.523438 C 95.15625 402.515625 92.203125 400.433594 89.300781 398.28125 C 86.394531 396.125 83.546875 393.902344 80.753906 391.609375 C 77.957031 389.316406 75.222656 386.957031 72.542969 384.527344 C 69.867188 382.101562 67.25 379.609375 64.691406 377.054688 C 62.136719 374.496094 59.644531 371.878906 57.21875 369.203125 C 54.789062 366.523438 52.429688 363.789062 50.136719 360.992188 C 47.84375 358.199219 45.621094 355.351562 43.464844 352.445312 C 41.3125 349.542969 39.230469 346.589844 37.222656 343.582031 C 35.214844 340.578125 33.28125 337.523438 31.425781 334.425781 C 29.566406 331.324219 27.785156 328.179688 26.082031 324.992188 C 24.375 321.804688 22.75 318.574219 21.207031 315.308594 C 19.660156 312.039062 18.195312 308.738281 16.8125 305.398438 C 15.429688 302.058594 14.128906 298.6875 12.910156 295.28125 C 11.695312 291.878906 10.558594 288.449219 9.511719 284.988281 C 8.460938 281.53125 7.496094 278.046875 6.621094 274.539062 C 5.742188 271.035156 4.949219 267.507812 4.242188 263.964844 C 3.539062 260.417969 2.921875 256.855469 2.390625 253.28125 C 1.859375 249.707031 1.417969 246.121094 1.0625 242.523438 C 0.710938 238.925781 0.445312 235.320312 0.265625 231.710938 C 0.0898438 228.101562 0 224.488281 0 220.871094 C 0 217.257812 0.0898438 213.644531 0.265625 210.035156 C 0.445312 206.425781 0.710938 202.820312 1.0625 199.222656 C 1.417969 195.625 1.859375 192.039062 2.390625 188.464844 C 2.921875 184.886719 3.539062 181.328125 4.242188 177.78125 C 4.949219 174.238281 5.742188 170.710938 6.621094 167.207031 C 7.496094 163.699219 8.460938 160.214844 9.511719 156.757812 C 10.558594 153.296875 11.695312 149.867188 12.910156 146.464844 C 14.128906 143.058594 15.429688 139.6875 16.8125 136.347656 C 18.195312 133.007812 19.660156 129.707031 21.207031 126.4375 C 22.75 123.167969 24.375 119.941406 26.082031 116.753906 C 27.785156 113.566406 29.566406 110.421875 31.425781 107.320312 C 33.28125 104.222656 35.214844 101.167969 37.222656 98.164062 C 39.230469 95.15625 41.3125 92.203125 43.464844 89.300781 C 45.621094 86.394531 47.84375 83.546875 50.136719 80.753906 C 52.429688 77.957031 54.789062 75.222656 57.21875 72.542969 C 59.644531 69.867188 62.136719 67.25 64.691406 64.691406 C 67.25 62.136719 69.867188 59.644531 72.542969 57.21875 C 75.222656 54.789062 77.957031 52.429688 80.753906 50.136719 C 83.546875 47.84375 86.394531 45.621094 89.300781 43.464844 C 92.203125 41.3125 95.15625 39.230469 98.164062 37.222656 C 101.167969 35.214844 104.222656 33.28125 107.320312 31.425781 C 110.421875 29.566406 113.566406 27.785156 116.753906 26.082031 C 119.941406 24.375 123.167969 22.75 126.4375 21.207031 C 129.707031 19.660156 133.007812 18.195312 136.347656 16.8125 C 139.6875 15.429688 143.058594 14.128906 146.464844 12.910156 C 149.867188 11.695312 153.296875 10.558594 156.757812 9.511719 C 160.214844 8.460938 163.699219 7.496094 167.207031 6.621094 C 170.710938 5.742188 174.238281 4.949219 177.78125 4.242188 C 181.328125 3.539062 184.886719 2.921875 188.464844 2.390625 C 192.039062 1.859375 195.625 1.417969 199.222656 1.0625 C 202.820312 0.710938 206.425781 0.445312 210.035156 0.265625 C 213.644531 0.0898438 217.257812 0 220.871094 0 C 224.488281 0 228.101562 0.0898438 231.710938 0.265625 C 235.320312 0.445312 238.925781 0.710938 242.523438 1.0625 C 246.121094 1.417969 249.707031 1.859375 253.28125 2.390625 C 256.855469 2.921875 260.417969 3.539062 263.964844 4.242188 C 267.507812 4.949219 271.035156 5.742188 274.539062 6.621094 C 278.046875 7.496094 281.53125 8.460938 284.988281 9.511719 C 288.449219 10.558594 291.878906 11.695312 295.28125 12.910156 C 298.6875 14.128906 302.058594 15.429688 305.398438 16.8125 C 308.738281 18.195312 312.039062 19.660156 315.308594 21.207031 C 318.574219 22.75 321.804688 24.375 324.992188 26.082031 C 328.179688 27.785156 331.324219 29.566406 334.425781 31.425781 C 337.523438 33.28125 340.578125 35.214844 343.582031 37.222656 C 346.589844 39.230469 349.542969 41.3125 352.445312 43.464844 C 355.351562 45.621094 358.199219 47.84375 360.992188 50.136719 C 363.789062 52.429688 366.523438 54.789062 369.203125 57.21875 C 371.878906 59.644531 374.496094 62.136719 377.054688 64.691406 C 379.609375 67.25 382.101562 69.867188 384.527344 72.542969 C 386.957031 75.222656 389.316406 77.957031 391.609375 80.753906 C 393.902344 83.546875 396.125 86.394531 398.28125 89.300781 C 400.433594 92.203125 402.515625 95.15625 404.523438 98.164062 C 406.53125 101.167969 408.464844 104.222656 410.320312 107.320312 C 412.179688 110.421875 413.960938 113.566406 415.664062 116.753906 C 417.371094 119.941406 418.996094 123.167969 420.539062 126.4375 C 422.085938 129.707031 423.550781 133.007812 424.933594 136.347656 C 426.316406 139.6875 427.617188 143.058594 428.835938 146.464844 C 430.050781 149.867188 431.1875 153.296875 432.234375 156.757812 C 433.285156 160.214844 434.25 163.699219 435.125 167.207031 C 436.003906 170.710938 436.796875 174.238281 437.5 177.78125 C 438.207031 181.328125 438.824219 184.886719 439.355469 188.464844 C 439.886719 192.039062 440.328125 195.625 440.683594 199.222656 C 441.035156 202.820312 441.300781 206.425781 441.480469 210.035156 C 441.65625 213.644531 441.746094 217.257812 441.746094 220.871094 Z M 441.746094 220.871094 " fill-opacity="1" fill-rule="nonzero"/></g><g clip-path="url(#bf0cd48891)"><g clip-path="url(#754820d6e6)"><path fill="#ffffff" d="M 31 242.867188 L 66.960938 242.867188 C 67.941406 247.046875 69.746094 250.042969 72.351562 251.859375 C 74.964844 253.6875 78.839844 254.601562 84 254.601562 C 88.316406 254.601562 91.730469 253.847656 94.195312 252.367188 C 96.671875 250.886719 97.90625 248.839844 97.90625 246.234375 C 97.90625 242.070312 92.726562 238.679688 82.359375 236.066406 C 80.277344 235.558594 78.691406 235.164062 77.59375 234.898438 C 69.101562 232.710938 62.332031 230.722656 57.3125 228.917969 C 52.277344 227.121094 48.621094 225.445312 46.332031 223.871094 C 41.898438 220.703125 38.578125 216.894531 36.359375 212.464844 C 34.148438 208.03125 33.039062 202.988281 33.039062 197.308594 C 33.039062 185.890625 37.34375 176.921875 45.9375 170.410156 C 54.535156 163.894531 66.371094 160.644531 81.421875 160.644531 C 96.21875 160.644531 107.871094 163.757812 116.363281 169.980469 C 124.855469 176.21875 129.644531 185.136719 130.742188 196.753906 L 95.652344 196.753906 C 95.074219 193.375 93.570312 190.839844 91.152344 189.175781 C 88.734375 187.507812 85.273438 186.675781 80.796875 186.675781 C 76.828125 186.675781 73.890625 187.324219 71.96875 188.632812 C 70.039062 189.9375 69.078125 191.90625 69.078125 194.566406 C 69.078125 198.371094 74.121094 201.554688 84.234375 204.097656 C 85.125 204.367188 85.796875 204.550781 86.269531 204.65625 C 87.726562 205.011719 89.9375 205.570312 92.910156 206.285156 C 106.308594 209.6875 115.054688 212.753906 119.171875 215.519531 C 124.285156 218.898438 128.011719 222.761719 130.347656 227.089844 C 132.699219 231.414062 133.867188 236.515625 133.867188 242.40625 C 133.867188 255.109375 129.421875 264.886719 120.539062 271.710938 C 111.652344 278.550781 98.925781 281.949219 82.359375 281.949219 C 67.085938 281.949219 54.984375 278.550781 46.054688 271.710938 C 37.109375 264.886719 32.101562 255.269531 31 242.867188 " fill-opacity="1" fill-rule="nonzero"/></g></g><g clip-path="url(#0484a1b443)"><g clip-path="url(#ff93cf7b2d)"><path fill="#ffffff" d="M 198.886719 221.304688 C 198.886719 232.191406 200.703125 240.183594 204.359375 245.296875 C 208.003906 250.402344 213.707031 252.957031 221.46875 252.957031 C 229.1875 252.957031 234.84375 250.414062 238.429688 245.332031 C 242.03125 240.253906 243.835938 232.25 243.835938 221.304688 C 243.835938 210.3125 242.03125 202.273438 238.429688 197.179688 C 234.84375 192.113281 229.1875 189.566406 221.46875 189.566406 C 213.707031 189.566406 208.003906 192.125 204.359375 197.226562 C 200.703125 202.328125 198.886719 210.359375 198.886719 221.304688 Z M 161.597656 221.304688 C 161.597656 202.539062 166.953125 187.742188 177.65625 176.910156 C 188.371094 166.058594 202.984375 160.644531 221.46875 160.644531 C 239.925781 160.644531 254.476562 166.058594 265.167969 176.910156 C 275.847656 187.742188 281.191406 202.539062 281.191406 221.304688 C 281.191406 240.011719 275.847656 254.796875 265.167969 265.660156 C 254.476562 276.523438 239.925781 281.949219 221.46875 281.949219 C 202.984375 281.949219 188.371094 276.523438 177.65625 265.660156 C 166.953125 254.796875 161.597656 240.011719 161.597656 221.304688 " fill-opacity="1" fill-rule="nonzero"/></g></g><g clip-path="url(#9d2f89a150)"><g clip-path="url(#457c45e85f)"><path fill="#ffffff" d="M 308.691406 242.867188 L 344.640625 242.867188 C 345.632812 247.046875 347.425781 250.042969 350.042969 251.859375 C 352.644531 253.6875 356.519531 254.601562 361.679688 254.601562 C 366.007812 254.601562 369.410156 253.847656 371.886719 252.367188 C 374.363281 250.886719 375.597656 248.839844 375.597656 246.234375 C 375.597656 242.070312 370.417969 238.679688 360.039062 236.066406 C 357.957031 235.558594 356.371094 235.164062 355.273438 234.898438 C 346.78125 232.710938 340.023438 230.722656 334.992188 228.917969 C 329.957031 227.121094 326.300781 225.445312 324.011719 223.871094 C 319.578125 220.703125 316.257812 216.894531 314.039062 212.464844 C 311.828125 208.03125 310.730469 202.988281 310.730469 197.308594 C 310.730469 185.890625 315.023438 176.921875 323.617188 170.410156 C 332.214844 163.894531 344.050781 160.644531 359.101562 160.644531 C 373.898438 160.644531 385.550781 163.757812 394.042969 169.980469 C 402.535156 176.21875 407.335938 185.136719 408.421875 196.753906 L 373.320312 196.753906 C 372.753906 193.375 371.261719 190.839844 368.832031 189.175781 C 366.414062 187.507812 362.964844 186.675781 358.476562 186.675781 C 354.519531 186.675781 351.570312 187.324219 349.636719 188.632812 C 347.71875 189.9375 346.757812 191.90625 346.757812 194.566406 C 346.757812 198.371094 351.800781 201.554688 361.914062 204.097656 C 362.804688 204.367188 363.484375 204.550781 363.949219 204.65625 C 365.40625 205.011719 367.628906 205.570312 370.589844 206.285156 C 383.988281 209.6875 392.734375 212.753906 396.851562 215.519531 C 401.953125 218.898438 405.691406 222.761719 408.039062 227.089844 C 410.378906 231.414062 411.546875 236.515625 411.546875 242.40625 C 411.546875 255.109375 407.101562 264.886719 398.230469 271.710938 C 389.34375 278.550781 376.605469 281.949219 360.039062 281.949219 C 344.777344 281.949219 332.664062 278.550781 323.734375 271.710938 C 314.800781 264.886719 309.78125 255.269531 308.691406 242.867188 " fill-opacity="1" fill-rule="nonzero"/></g></g></svg>