<svg xmlns="http://www.w3.org/2000/svg" xmlns:xlink="http://www.w3.org/1999/xlink" width="310" zoomAndPan="magnify" viewBox="0 0 232.5 232.499992" height="310" preserveAspectRatio="xMidYMid meet" version="1.0"><path fill="#d7596d" d="M 232 116 C 232 117.898438 231.953125 119.796875 231.859375 121.691406 C 231.769531 123.589844 231.628906 125.480469 231.441406 127.371094 C 231.257812 129.261719 231.023438 131.144531 230.746094 133.019531 C 230.46875 134.898438 230.140625 136.769531 229.773438 138.632812 C 229.402344 140.492188 228.984375 142.34375 228.523438 144.1875 C 228.0625 146.027344 227.558594 147.855469 227.007812 149.671875 C 226.453125 151.492188 225.859375 153.292969 225.21875 155.078125 C 224.582031 156.867188 223.898438 158.636719 223.171875 160.390625 C 222.445312 162.144531 221.675781 163.882812 220.863281 165.597656 C 220.050781 167.3125 219.199219 169.007812 218.304688 170.683594 C 217.410156 172.355469 216.472656 174.007812 215.496094 175.636719 C 214.523438 177.265625 213.507812 178.867188 212.453125 180.445312 C 211.398438 182.027344 210.304688 183.578125 209.171875 185.101562 C 208.042969 186.625 206.875 188.121094 205.671875 189.589844 C 204.464844 191.058594 203.226562 192.496094 201.953125 193.902344 C 200.675781 195.308594 199.367188 196.683594 198.023438 198.023438 C 196.683594 199.367188 195.308594 200.675781 193.902344 201.953125 C 192.496094 203.226562 191.058594 204.464844 189.589844 205.671875 C 188.121094 206.875 186.625 208.042969 185.101562 209.171875 C 183.578125 210.304688 182.027344 211.398438 180.445312 212.453125 C 178.867188 213.507812 177.265625 214.523438 175.636719 215.496094 C 174.007812 216.472656 172.355469 217.410156 170.683594 218.304688 C 169.007812 219.199219 167.3125 220.050781 165.597656 220.863281 C 163.882812 221.675781 162.144531 222.445312 160.390625 223.171875 C 158.636719 223.898438 156.867188 224.582031 155.078125 225.21875 C 153.292969 225.859375 151.492188 226.453125 149.671875 227.007812 C 147.855469 227.558594 146.027344 228.0625 144.1875 228.523438 C 142.34375 228.984375 140.492188 229.402344 138.632812 229.773438 C 136.769531 230.140625 134.898438 230.46875 133.019531 230.746094 C 131.144531 231.023438 129.261719 231.257812 127.371094 231.441406 C 125.480469 231.628906 123.589844 231.769531 121.691406 231.859375 C 119.796875 231.953125 117.898438 232 116 232 C 114.101562 232 112.203125 231.953125 110.308594 231.859375 C 108.414062 231.769531 106.519531 231.628906 104.628906 231.441406 C 102.742188 231.257812 100.859375 231.023438 98.980469 230.746094 C 97.101562 230.46875 95.230469 230.140625 93.371094 229.773438 C 91.507812 229.402344 89.65625 228.984375 87.816406 228.523438 C 85.972656 228.0625 84.144531 227.558594 82.328125 227.007812 C 80.511719 226.453125 78.707031 225.859375 76.921875 225.21875 C 75.132812 224.582031 73.363281 223.898438 71.609375 223.171875 C 69.855469 222.445312 68.121094 221.675781 66.402344 220.863281 C 64.6875 220.050781 62.992188 219.199219 61.316406 218.304688 C 59.644531 217.410156 57.992188 216.472656 56.363281 215.496094 C 54.734375 214.523438 53.132812 213.507812 51.554688 212.453125 C 49.976562 211.398438 48.425781 210.304688 46.898438 209.171875 C 45.375 208.042969 43.878906 206.875 42.410156 205.671875 C 40.941406 204.464844 39.507812 203.226562 38.097656 201.953125 C 36.691406 200.675781 35.316406 199.367188 33.976562 198.023438 C 32.632812 196.683594 31.324219 195.308594 30.050781 193.902344 C 28.773438 192.496094 27.535156 191.058594 26.332031 189.589844 C 25.125 188.121094 23.957031 186.625 22.828125 185.101562 C 21.695312 183.578125 20.605469 182.027344 19.550781 180.445312 C 18.496094 178.867188 17.480469 177.265625 16.503906 175.636719 C 15.527344 174.007812 14.59375 172.355469 13.695312 170.683594 C 12.800781 169.007812 11.949219 167.3125 11.136719 165.597656 C 10.324219 163.882812 9.554688 162.144531 8.828125 160.390625 C 8.105469 158.636719 7.421875 156.867188 6.78125 155.078125 C 6.140625 153.292969 5.546875 151.492188 4.996094 149.671875 C 4.445312 147.855469 3.9375 146.027344 3.476562 144.1875 C 3.015625 142.34375 2.597656 140.492188 2.230469 138.632812 C 1.859375 136.769531 1.535156 134.898438 1.253906 133.019531 C 0.976562 131.144531 0.746094 129.261719 0.558594 127.371094 C 0.371094 125.480469 0.234375 123.589844 0.140625 121.691406 C 0.046875 119.796875 0 117.898438 0 116 C 0 114.101562 0.046875 112.203125 0.140625 110.308594 C 0.234375 108.414062 0.371094 106.519531 0.558594 104.628906 C 0.746094 102.742188 0.976562 100.859375 1.253906 98.980469 C 1.535156 97.101562 1.859375 95.230469 2.230469 93.371094 C 2.597656 91.507812 3.015625 89.65625 3.476562 87.816406 C 3.9375 85.972656 4.445312 84.144531 4.996094 82.328125 C 5.546875 80.511719 6.140625 78.707031 6.78125 76.921875 C 7.421875 75.132812 8.105469 73.363281 8.828125 71.609375 C 9.554688 69.855469 10.324219 68.121094 11.136719 66.402344 C 11.949219 64.6875 12.800781 62.992188 13.695312 61.316406 C 14.59375 59.644531 15.527344 57.992188 16.503906 56.363281 C 17.480469 54.734375 18.496094 53.132812 19.550781 51.554688 C 20.605469 49.976562 21.695312 48.425781 22.828125 46.898438 C 23.957031 45.375 25.125 43.878906 26.332031 42.410156 C 27.535156 40.941406 28.773438 39.507812 30.050781 38.097656 C 31.324219 36.691406 32.632812 35.316406 33.976562 33.976562 C 35.316406 32.632812 36.691406 31.324219 38.097656 30.050781 C 39.507812 28.773438 40.941406 27.535156 42.410156 26.332031 C 43.878906 25.125 45.375 23.957031 46.898438 22.828125 C 48.425781 21.695312 49.976562 20.605469 51.554688 19.550781 C 53.132812 18.496094 54.734375 17.480469 56.363281 16.503906 C 57.992188 15.527344 59.644531 14.59375 61.316406 13.695312 C 62.992188 12.800781 64.6875 11.949219 66.402344 11.136719 C 68.121094 10.324219 69.855469 9.554688 71.609375 8.828125 C 73.363281 8.105469 75.132812 7.421875 76.921875 6.78125 C 78.707031 6.140625 80.511719 5.546875 82.328125 4.996094 C 84.144531 4.445312 85.972656 3.9375 87.816406 3.476562 C 89.65625 3.015625 91.507812 2.597656 93.371094 2.230469 C 95.230469 1.859375 97.101562 1.535156 98.980469 1.253906 C 100.859375 0.976562 102.742188 0.746094 104.628906 0.558594 C 106.519531 0.371094 108.414062 0.234375 110.308594 0.140625 C 112.203125 0.046875 114.101562 0 116 0 C 117.898438 0 119.796875 0.046875 121.691406 0.140625 C 123.589844 0.234375 125.480469 0.371094 127.371094 0.558594 C 129.261719 0.746094 131.144531 0.976562 133.019531 1.253906 C 134.898438 1.535156 136.769531 1.859375 138.632812 2.230469 C 140.492188 2.597656 142.34375 3.015625 144.1875 3.476562 C 146.027344 3.9375 147.855469 4.445312 149.671875 4.996094 C 151.492188 5.546875 153.292969 6.140625 155.078125 6.78125 C 156.867188 7.421875 158.636719 8.105469 160.390625 8.828125 C 162.144531 9.554688 163.882812 10.324219 165.597656 11.136719 C 167.3125 11.949219 169.007812 12.800781 170.683594 13.695312 C 172.355469 14.59375 174.007812 15.527344 175.636719 16.503906 C 177.265625 17.480469 178.867188 18.496094 180.445312 19.550781 C 182.027344 20.605469 183.578125 21.695312 185.101562 22.828125 C 186.625 23.957031 188.121094 25.125 189.589844 26.332031 C 191.058594 27.535156 192.496094 28.773438 193.902344 30.050781 C 195.308594 31.324219 196.683594 32.632812 198.023438 33.976562 C 199.367188 35.316406 200.675781 36.691406 201.953125 38.097656 C 203.226562 39.507812 204.464844 40.941406 205.671875 42.410156 C 206.875 43.878906 208.042969 45.375 209.171875 46.898438 C 210.304688 48.425781 211.398438 49.976562 212.453125 51.554688 C 213.507812 53.132812 214.523438 54.734375 215.496094 56.363281 C 216.472656 57.992188 217.410156 59.644531 218.304688 61.316406 C 219.199219 62.992188 220.050781 64.6875 220.863281 66.402344 C 221.675781 68.121094 222.445312 69.855469 223.171875 71.609375 C 223.898438 73.363281 224.582031 75.132812 225.21875 76.921875 C 225.859375 78.707031 226.453125 80.511719 227.007812 82.328125 C 227.558594 84.144531 228.0625 85.972656 228.523438 87.816406 C 228.984375 89.65625 229.402344 91.507812 229.773438 93.371094 C 230.140625 95.230469 230.46875 97.101562 230.746094 98.980469 C 231.023438 100.859375 231.257812 102.742188 231.441406 104.628906 C 231.628906 106.519531 231.769531 108.414062 231.859375 110.308594 C 231.953125 112.203125 232 114.101562 232 116 Z M 232 116 " fill-opacity="1" fill-rule="nonzero"/><path fill="#ffffff" d="M 176.972656 144.332031 L 153.511719 137.671875 C 146.550781 135.699219 142.941406 128.027344 145.847656 121.402344 L 148.929688 114.390625 C 129.476562 102.4375 102.523438 102.4375 83.078125 114.390625 L 86.160156 121.402344 C 89.066406 128.027344 85.457031 135.691406 78.496094 137.671875 L 55.035156 144.332031 C 47.546875 146.457031 40.433594 139.953125 41.882812 132.304688 L 43.558594 123.460938 C 46.160156 109.730469 54.453125 97.519531 66.664062 90.726562 C 99.984375 72.1875 127.390625 72.320312 163.902344 91.125 C 176.929688 97.832031 185.984375 110.417969 188.710938 124.816406 L 190.132812 132.304688 C 191.582031 139.953125 184.46875 146.457031 176.972656 144.332031 Z M 176.972656 144.332031 " fill-opacity="1" fill-rule="nonzero"/></svg>