<svg xmlns="http://www.w3.org/2000/svg" xmlns:xlink="http://www.w3.org/1999/xlink" width="306" zoomAndPan="magnify" viewBox="0 0 229.5 231" height="308" preserveAspectRatio="xMidYMid meet" version="1.0"><path fill="#ff0000" d="M 48.730469 135.785156 C 48.757812 135.757812 48.757812 135.757812 48.730469 135.785156 C 48.757812 135.757812 48.757812 135.757812 48.730469 135.785156 Z M 48.730469 135.785156 " fill-opacity="1" fill-rule="nonzero"/><path fill="#ff0000" d="M 135.953125 198.097656 C 135.402344 197.429688 134.824219 196.734375 134.242188 196.007812 C 127.285156 187.714844 116.820312 176.609375 110.792969 170.320312 C 110.472656 170 110.183594 169.679688 109.894531 169.363281 C 107.660156 166.257812 103.980469 166.519531 100.558594 167.011719 C 100.125 167.128906 99.691406 167.246094 99.253906 167.390625 C 95.804688 168.40625 92.066406 169.128906 88.441406 169.769531 C 87.542969 169.914062 86.644531 170.085938 85.746094 170.230469 C 83.195312 170.582031 80.238281 170.78125 77.601562 171.042969 C 76.472656 170.984375 75.628906 170.8125 75.136719 170.492188 C 68.355469 167.101562 63.339844 161.9375 59.453125 155.910156 C 59.105469 155.355469 58.757812 154.804688 58.410156 154.226562 C 57.308594 152.691406 56.382812 151.09375 55.511719 149.441406 C 55.222656 148.890625 54.933594 148.339844 54.671875 147.761719 C 54.351562 147.007812 54.035156 146.28125 53.6875 145.558594 C 53.339844 144.832031 52.992188 144.105469 52.640625 143.382812 C 51.222656 140.484375 49.832031 138.683594 48.699219 135.84375 C 47.945312 134.25 46.785156 132.363281 45.683594 129.636719 C 45.222656 128.625 44.730469 127.578125 44.265625 126.566406 C 44.03125 126.070312 43.800781 125.578125 43.597656 125.085938 C 42.960938 123.605469 42.4375 122.070312 42.179688 120.417969 C 41.976562 119.78125 41.742188 119.171875 41.539062 118.5625 C 39.277344 111.804688 38.410156 104.703125 40.003906 97.335938 C 40.0625 96.785156 40.46875 96.003906 41.105469 95.074219 C 42.960938 93.160156 44.988281 90.988281 46.84375 89.21875 C 47.511719 88.609375 48.179688 88.03125 48.875 87.421875 C 51.628906 84.984375 54.527344 82.519531 57.484375 80.460938 C 57.859375 80.199219 58.207031 79.941406 58.585938 79.679688 C 61.105469 77.300781 63.601562 74.605469 62.585938 70.921875 C 62.527344 70.515625 62.46875 70.082031 62.410156 69.617188 C 61.28125 60.976562 59.164062 45.871094 57.019531 35.257812 C 56.847656 34.328125 56.644531 33.460938 56.46875 32.617188 C 56.382812 27.890625 54.179688 25.226562 50.960938 23.804688 C 49.886719 23.339844 48.699219 22.992188 47.453125 22.761719 C 37.800781 22.933594 26.523438 22.816406 18.871094 29.398438 C 17.796875 30.355469 16.753906 31.371094 15.742188 32.472656 C 13.421875 35.226562 11.160156 38.097656 9.160156 41.144531 C 8.492188 42.15625 7.855469 43.171875 7.277344 44.21875 C 0 58.28125 1.535156 74.835938 3.074219 90.089844 C 3.246094 91.683594 3.480469 93.277344 3.738281 94.871094 C 6 108.789062 10.753906 121.953125 16.898438 134.566406 C 17.21875 135.207031 17.507812 135.8125 17.828125 136.453125 C 18.058594 136.972656 18.292969 137.523438 18.523438 138.046875 C 18.753906 138.570312 19.015625 139.121094 19.25 139.640625 C 22.320312 146.136719 25.828125 152.660156 28.902344 159.273438 C 29.160156 159.878906 29.421875 160.519531 29.710938 161.128906 C 36.03125 175.335938 43.859375 188.730469 54.324219 200.300781 C 55.394531 201.488281 56.496094 202.679688 57.628906 203.808594 C 68.585938 214.539062 80.527344 226.105469 96.152344 229.210938 C 97.34375 229.382812 98.53125 229.558594 99.75 229.644531 C 103.371094 229.992188 107.023438 229.992188 110.617188 229.90625 C 112.097656 229.789062 113.546875 229.617188 114.96875 229.382812 C 124.851562 227.527344 131.808594 218.65625 138.011719 211.230469 C 138.621094 210.101562 139.085938 208.96875 139.375 207.839844 C 140.300781 204.476562 139.605469 201.113281 135.953125 198.097656 Z M 48.730469 135.8125 C 48.730469 135.84375 48.730469 135.84375 48.730469 135.8125 C 48.730469 135.84375 48.730469 135.84375 48.730469 135.8125 Z M 48.730469 135.8125 " fill-opacity="1" fill-rule="nonzero"/><path fill="#f9081f" d="M 79.515625 81.96875 L 81.457031 90.84375 L 91.109375 86.261719 L 91.285156 86.261719 L 91.285156 126.332031 L 102.703125 126.332031 L 102.703125 75.734375 L 92.992188 75.734375 Z M 79.515625 81.96875 " fill-opacity="1" fill-rule="nonzero"/><path fill="#f9081f" d="M 122.707031 81.96875 L 124.648438 90.84375 L 134.300781 86.261719 L 134.445312 86.261719 L 134.445312 126.332031 L 145.898438 126.332031 L 145.898438 75.734375 L 136.15625 75.734375 Z M 122.707031 81.96875 " fill-opacity="1" fill-rule="nonzero"/><path fill="#f9081f" d="M 179.351562 116.617188 L 179.351562 116.472656 L 184.015625 112.589844 C 191.410156 106.066406 197.46875 99.28125 197.46875 90.726562 C 197.46875 81.621094 191.234375 74.921875 179.726562 74.921875 C 172.941406 74.921875 166.972656 77.273438 163.230469 80.140625 L 166.566406 88.550781 C 169.203125 86.609375 173.03125 84.433594 177.378906 84.433594 C 183.207031 84.433594 185.640625 87.710938 185.640625 91.828125 C 185.554688 97.742188 180.191406 103.425781 169.058594 113.402344 L 162.59375 119.230469 L 162.59375 126.390625 L 198.453125 126.390625 L 198.453125 116.648438 L 179.351562 116.648438 Z M 179.351562 116.617188 " fill-opacity="1" fill-rule="nonzero"/><path fill="#f9081f" d="M 226.195312 83.011719 C 226.078125 82.519531 225.816406 81.214844 225.730469 80.695312 C 225.585938 79.96875 225.382812 79.097656 225.207031 78.402344 C 224.773438 76.574219 224.195312 74.515625 223.671875 72.71875 C 223.441406 71.964844 223.152344 71.039062 222.890625 70.285156 C 222.222656 68.3125 221.441406 66.136719 220.65625 64.195312 C 208.859375 34.851562 183.582031 12.292969 152.96875 4.289062 C 140.417969 1.011719 127.171875 0.257812 114.328125 2.144531 C 112.675781 2.375 110.792969 2.722656 109.140625 3.042969 C 108.445312 3.1875 107.632812 3.363281 106.9375 3.535156 C 106.242188 3.679688 105.082031 4 104.386719 4.144531 C 103.71875 4.320312 102.558594 4.636719 101.863281 4.839844 C 100.386719 5.277344 98.675781 5.828125 97.226562 6.320312 C 96.703125 6.492188 95.980469 6.785156 95.488281 6.957031 C 94.964844 7.132812 93.921875 7.566406 93.398438 7.769531 C 92.589844 8.058594 91.457031 8.582031 90.675781 8.898438 C 89.136719 9.597656 87.515625 10.320312 86.007812 11.105469 C 85.542969 11.335938 84.820312 11.710938 84.382812 11.945312 C 83.777344 12.261719 82.703125 12.871094 82.125 13.191406 C 81.6875 13.453125 80.675781 14.0625 80.238281 14.292969 C 79.023438 15.046875 77.746094 15.859375 76.558594 16.671875 C 74.992188 17.742188 73.367188 18.902344 71.863281 20.09375 C 66.238281 24.5 61.105469 29.601562 56.902344 35.375 C 56.902344 35.375 57.917969 36.445312 57.917969 36.445312 C 61.28125 33.402344 64.875 30.558594 68.613281 28.007812 C 69.457031 27.429688 70.613281 26.703125 71.457031 26.152344 C 100.558594 7.828125 138.042969 7.160156 167.726562 24.558594 C 202.019531 44.535156 219.847656 84.058594 212.078125 122.96875 C 210.28125 132.074219 207.089844 140.886719 202.683594 149.035156 C 202.078125 150.136719 201.292969 151.5 200.65625 152.574219 C 200.132812 153.414062 199.410156 154.601562 198.859375 155.445312 C 198.453125 156.109375 197.785156 157.039062 197.351562 157.707031 C 195.292969 160.632812 193.03125 163.5625 190.65625 166.257812 C 184.394531 173.394531 176.972656 179.597656 168.828125 184.496094 C 163.175781 187.917969 157.085938 190.761719 150.824219 192.9375 C 148.738281 193.632812 146.59375 194.296875 144.476562 194.847656 C 144.011719 194.964844 143.289062 195.140625 142.824219 195.285156 C 141.492188 195.601562 140.15625 195.894531 138.824219 196.183594 C 137.460938 196.445312 135.839844 196.734375 134.445312 196.964844 L 134.648438 198.414062 C 136.535156 198.503906 138.417969 198.53125 140.300781 198.445312 C 141.375 198.414062 142.449219 198.328125 143.492188 198.269531 C 143.984375 198.242188 144.796875 198.15625 145.257812 198.097656 C 158.59375 196.792969 171.550781 192.125 182.886719 185.019531 C 186.25 182.902344 189.523438 180.554688 192.597656 178.03125 C 195.871094 175.335938 199.03125 172.347656 201.929688 169.246094 C 209.035156 161.589844 214.890625 152.71875 219.179688 143.207031 C 224.308594 131.898438 227.210938 119.578125 227.816406 107.167969 C 228.253906 99.078125 227.703125 90.929688 226.195312 83.011719 Z M 226.195312 83.011719 " fill-opacity="1" fill-rule="nonzero"/></svg>