<svg xmlns="http://www.w3.org/2000/svg" width="591" height="591" version="1.0" viewBox="0 0 443.25 443.25"><defs><clipPath id="a"><path d="M0 0h441.754v441.754H0Zm0 0"/></clipPath><clipPath id="b"><path d="M105 72h231v149H105Zm0 0"/></clipPath><clipPath id="c"><path d="m113.434 59.129 228.87 21.32-14.167 152.082L99.27 211.215Zm0 0"/></clipPath><clipPath id="d"><path d="m113.434 59.129 228.87 21.32-14.167 152.082L99.27 211.215Zm0 0"/></clipPath><clipPath id="e"><path d="m113.434 59.129 228.87 21.32-14.167 152.082L99.27 211.215Zm0 0"/></clipPath></defs><g clip-path="url(#a)"><path fill="#f0bb5f" d="M441.746 220.871c0 3.617-.09 7.23-.266 10.84-.18 3.61-.445 7.215-.796 10.812a220.894 220.894 0 0 1-5.559 32.016 214.186 214.186 0 0 1-2.89 10.45 220.222 220.222 0 0 1-11.696 30.32 215.694 215.694 0 0 1-4.875 9.683 219.777 219.777 0 0 1-5.344 9.434 218.896 218.896 0 0 1-5.797 9.156 220.838 220.838 0 0 1-19.996 25.621 224.892 224.892 0 0 1-7.472 7.852 224.892 224.892 0 0 1-7.852 7.472 220.838 220.838 0 0 1-25.621 19.996 218.896 218.896 0 0 1-9.156 5.797 219.777 219.777 0 0 1-9.434 5.344 215.694 215.694 0 0 1-9.683 4.875 219.522 219.522 0 0 1-20.028 8.297 220.222 220.222 0 0 1-10.293 3.398 214.186 214.186 0 0 1-10.449 2.891 220.388 220.388 0 0 1-53.668 6.621c-3.613 0-7.226-.09-10.836-.266-3.61-.18-7.215-.445-10.812-.796a220.894 220.894 0 0 1-32.016-5.559 214.186 214.186 0 0 1-10.45-2.89 220.222 220.222 0 0 1-30.32-11.696 213.629 213.629 0 0 1-9.683-4.875 219.777 219.777 0 0 1-9.434-5.344 218.897 218.897 0 0 1-9.156-5.797 220.838 220.838 0 0 1-25.621-19.996 224.892 224.892 0 0 1-7.852-7.472 224.89 224.89 0 0 1-7.472-7.852 220.838 220.838 0 0 1-19.996-25.621 218.897 218.897 0 0 1-5.797-9.156 219.779 219.779 0 0 1-5.344-9.434 215.696 215.696 0 0 1-4.875-9.683 219.522 219.522 0 0 1-8.297-20.028 220.22 220.22 0 0 1-3.398-10.293 214.186 214.186 0 0 1-2.89-10.449 222.195 222.195 0 0 1-2.38-10.574 225.23 225.23 0 0 1-1.851-10.684 219.32 219.32 0 0 1-1.328-10.758 227.474 227.474 0 0 1-.797-10.812A222.81 222.81 0 0 1 0 220.87c0-3.613.09-7.226.266-10.836a219.32 219.32 0 0 1 2.125-21.57 224.37 224.37 0 0 1 1.851-10.684c.707-3.543 1.5-7.07 2.38-10.574a213.084 213.084 0 0 1 2.89-10.45 220.221 220.221 0 0 1 11.695-30.32 213.631 213.631 0 0 1 4.875-9.683 219.78 219.78 0 0 1 5.344-9.434 218.898 218.898 0 0 1 5.797-9.156 220.838 220.838 0 0 1 19.996-25.621 224.89 224.89 0 0 1 7.472-7.852 224.89 224.89 0 0 1 7.852-7.472 220.838 220.838 0 0 1 25.621-19.996 218.898 218.898 0 0 1 9.156-5.797 219.78 219.78 0 0 1 9.434-5.344 213.631 213.631 0 0 1 9.683-4.875 219.52 219.52 0 0 1 20.028-8.297 220.221 220.221 0 0 1 10.293-3.398 214.186 214.186 0 0 1 10.449-2.89 222.195 222.195 0 0 1 10.574-2.38 224.37 224.37 0 0 1 10.684-1.851 219.32 219.32 0 0 1 21.57-2.125A222.77 222.77 0 0 1 220.871 0c3.617 0 7.23.09 10.84.266a219.32 219.32 0 0 1 21.57 2.125 225.23 225.23 0 0 1 10.684 1.851c3.543.707 7.07 1.5 10.574 2.38 3.508.874 6.992 1.839 10.45 2.89a220.22 220.22 0 0 1 30.32 11.695 215.696 215.696 0 0 1 9.683 4.875 219.779 219.779 0 0 1 9.434 5.344 218.897 218.897 0 0 1 9.156 5.797 220.838 220.838 0 0 1 25.621 19.996 224.89 224.89 0 0 1 7.852 7.472 224.892 224.892 0 0 1 7.472 7.852 220.838 220.838 0 0 1 19.996 25.621 218.897 218.897 0 0 1 5.797 9.156c1.86 3.102 3.64 6.246 5.344 9.434a213.629 213.629 0 0 1 4.875 9.683 219.52 219.52 0 0 1 8.297 20.028 220.222 220.222 0 0 1 3.398 10.293 214.186 214.186 0 0 1 2.891 10.449 217.46 217.46 0 0 1 2.375 10.574 220.894 220.894 0 0 1 3.184 21.441c.351 3.598.617 7.204.796 10.813.176 3.61.266 7.223.266 10.836Zm0 0"/></g><g clip-path="url(#b)"><g clip-path="url(#c)"><g clip-path="url(#d)"><g clip-path="url(#e)"><path d="M217.156 207.434c13.274 1.539 27.559.015 41.457-4.618 19.473-6.492 35.39-17.765 46.34-35.484 3.379-5.453 5.828-11.324 7.692-17.453.578-1.89.257-3.387-1.442-4.543-1.117-.746-2.254-1.508-3.21-2.45-1.864-1.835-2.24-4.3-1.15-6.359 1.192-2.28 3.778-3.5 6.372-2.773 1.652.473 3.226 1.262 4.808 1.953 3.887 1.7 7.774 3.398 11.614 5.176 1.394.64 2.777 1.39 3.96 2.347 1.755 1.43 2.516 3.418 2.024 5.704-.543 2.464-2.09 4.093-4.547 4.75-.734.187-1.523.222-2.289.238-3.87.113-3.918.082-5.195 3.644-8.41 23.364-24.266 40.032-46.13 51.16-16.105 8.204-33.288 11.739-51.32 11.86-24.425.164-46.788-6.645-67.296-19.57-16.457-10.36-29.489-24.133-38.5-41.54-.266-.511-.508-1.042-.785-1.554-1.16-1.988-1.711-2.2-3.688-1.375-.883.367-1.707.91-2.617 1.2-2.586.827-4.992.01-6.652-2.161-1.653-2.172-1.707-4.594-.137-7.008 1.074-1.648 2.59-2.844 4.14-4.012 3.997-3.015 7.997-6.043 12.051-9.007 1.235-.891 2.57-1.727 3.98-2.278 2.524-.988 5.137-.031 6.567 2.168 1.344 2.055 1.223 4.403-.371 6.465-.36.45-.75.899-1.207 1.234-4.055 2.973-2.8 4.477-1.21 7.915 7.468 16.046 19.058 28.484 33.593 38.207 15.687 10.472 33.012 16.503 53.148 18.164Zm-44.18-112.88c.266-2.85.438-4.96.669-7.066.12-1.152.207-2.324.5-3.425.78-3.024 3.097-4.887 5.726-4.762 2.59.12 4.719 2.21 5.32 5.258.149.742.258 1.527.235 2.293-.27 10.976.594 21.976-.27 32.945-.12 1.547-.191 3.094-.527 4.594-.672 3.082-2.797 4.949-5.496 5.074-2.848.148-5.473-1.848-6.156-5.043-.438-2.059-.61-4.211-.586-6.32.125-8.09.394-16.18.586-23.547Zm75.587-11.48c.175-1.879.218-3.62.523-5.332.508-2.867 2.398-4.719 4.871-4.984 2.629-.293 5.11 1.422 6.074 4.328.371 1.078.602 2.254.617 3.398.11 7.907.172 15.805.2 23.704.011 3.265-.125 6.546-.114 9.824-.007 1.75-.058 3.468-.707 5.12-1.168 2.93-3.425 4.661-6.023 4.579-2.617-.074-4.809-1.918-5.625-4.996a14.568 14.568 0 0 1-.461-3.988c.176-10.598.422-21.192.644-31.653Zm0 0"/></g></g></g></g></svg>