<svg xmlns="http://www.w3.org/2000/svg" xmlns:xlink="http://www.w3.org/1999/xlink" width="241" zoomAndPan="magnify" viewBox="0 0 180.75 180.749997" height="241" preserveAspectRatio="xMidYMid meet" version="1.0"><defs><clipPath id="72ec442ad6"><path d="M 5 3 L 178 3 L 178 176 L 5 176 Z M 5 3 " clip-rule="nonzero"/></clipPath><clipPath id="eace5e4373"><path d="M 0 74.894531 L 0 104.875 C 0 146.238281 33.53125 179.769531 74.894531 179.769531 L 104.875 179.769531 C 146.238281 179.769531 179.769531 146.238281 179.769531 104.875 L 179.769531 74.894531 C 179.769531 33.53125 146.238281 0 104.875 0 L 74.894531 0 C 33.53125 0 0 33.53125 0 74.894531 Z M 0 74.894531 " clip-rule="nonzero"/></clipPath><clipPath id="757dec4982"><path d="M 55 14 L 167 14 L 167 98 L 55 98 Z M 55 14 " clip-rule="nonzero"/></clipPath><clipPath id="01c8887e85"><path d="M 0 74.894531 L 0 104.875 C 0 146.238281 33.53125 179.769531 74.894531 179.769531 L 104.875 179.769531 C 146.238281 179.769531 179.769531 146.238281 179.769531 104.875 L 179.769531 74.894531 C 179.769531 33.53125 146.238281 0 104.875 0 L 74.894531 0 C 33.53125 0 0 33.53125 0 74.894531 Z M 0 74.894531 " clip-rule="nonzero"/></clipPath><clipPath id="240ec5e0c2"><path d="M 5 4 L 178 4 L 178 176 L 5 176 Z M 5 4 " clip-rule="nonzero"/></clipPath><clipPath id="f095984007"><path d="M 0 74.894531 L 0 104.875 C 0 146.238281 33.53125 179.769531 74.894531 179.769531 L 104.875 179.769531 C 146.238281 179.769531 179.769531 146.238281 179.769531 104.875 L 179.769531 74.894531 C 179.769531 33.53125 146.238281 0 104.875 0 L 74.894531 0 C 33.53125 0 0 33.53125 0 74.894531 Z M 0 74.894531 " clip-rule="nonzero"/></clipPath><clipPath id="6d89045c23"><path d="M 27 68 L 62 68 L 62 110 L 27 110 Z M 27 68 " clip-rule="nonzero"/></clipPath><clipPath id="b463e28850"><path d="M 0 74.894531 L 0 104.875 C 0 146.238281 33.53125 179.769531 74.894531 179.769531 L 104.875 179.769531 C 146.238281 179.769531 179.769531 146.238281 179.769531 104.875 L 179.769531 74.894531 C 179.769531 33.53125 146.238281 0 104.875 0 L 74.894531 0 C 33.53125 0 0 33.53125 0 74.894531 Z M 0 74.894531 " clip-rule="nonzero"/></clipPath><clipPath id="f5fc26a26e"><path d="M 71 68 L 112 68 L 112 110 L 71 110 Z M 71 68 " clip-rule="nonzero"/></clipPath><clipPath id="125d8ca8c8"><path d="M 0 74.894531 L 0 104.875 C 0 146.238281 33.53125 179.769531 74.894531 179.769531 L 104.875 179.769531 C 146.238281 179.769531 179.769531 146.238281 179.769531 104.875 L 179.769531 74.894531 C 179.769531 33.53125 146.238281 0 104.875 0 L 74.894531 0 C 33.53125 0 0 33.53125 0 74.894531 Z M 0 74.894531 " clip-rule="nonzero"/></clipPath><clipPath id="6225898d57"><path d="M 121 68 L 156 68 L 156 110 L 121 110 Z M 121 68 " clip-rule="nonzero"/></clipPath><clipPath id="6c13a8dd72"><path d="M 0 74.894531 L 0 104.875 C 0 146.238281 33.53125 179.769531 74.894531 179.769531 L 104.875 179.769531 C 146.238281 179.769531 179.769531 146.238281 179.769531 104.875 L 179.769531 74.894531 C 179.769531 33.53125 146.238281 0 104.875 0 L 74.894531 0 C 33.53125 0 0 33.53125 0 74.894531 Z M 0 74.894531 " clip-rule="nonzero"/></clipPath><clipPath id="c09749a643"><path d="M 0 0 L 179.75 0 L 179.75 179.75 L 0 179.75 Z M 0 0 " clip-rule="nonzero"/></clipPath><clipPath id="841420c98b"><path d="M 0 74.894531 L 0 104.875 C 0 146.238281 33.53125 179.769531 74.894531 179.769531 L 104.875 179.769531 C 146.238281 179.769531 179.769531 146.238281 179.769531 104.875 L 179.769531 74.894531 C 179.769531 33.53125 146.238281 0 104.875 0 L 74.894531 0 C 33.53125 0 0 33.53125 0 74.894531 Z M 0 74.894531 " clip-rule="nonzero"/></clipPath></defs><g clip-path="url(#72ec442ad6)"><g clip-path="url(#eace5e4373)"><path fill="#d7596d" d="M 177.566406 89.410156 C 177.566406 136.949219 139.027344 175.488281 91.484375 175.488281 C 43.945312 175.488281 5.40625 136.949219 5.40625 89.410156 C 5.40625 41.867188 43.945312 3.328125 91.484375 3.328125 C 139.027344 3.328125 177.566406 41.867188 177.566406 89.410156 " fill-opacity="1" fill-rule="nonzero"/></g></g><g clip-path="url(#757dec4982)"><g clip-path="url(#01c8887e85)"><path fill="#d7596d" d="M 55.859375 23.542969 C 56.476562 64.363281 89.75 97.261719 130.710938 97.261719 C 143.613281 97.261719 155.746094 94 166.339844 88.257812 C 165.722656 47.441406 132.449219 14.539062 91.484375 14.539062 C 78.589844 14.539062 66.453125 17.804688 55.859375 23.542969 " fill-opacity="1" fill-rule="nonzero"/></g></g><g clip-path="url(#240ec5e0c2)"><g clip-path="url(#f095984007)"><path fill="#bb3d51" d="M 98.402344 160.183594 C 54.679688 160.183594 19.238281 124.742188 19.238281 81.023438 C 19.238281 43.917969 44.765625 12.777344 79.222656 4.203125 C 37.492188 10.160156 5.40625 46.035156 5.40625 89.410156 C 5.40625 136.949219 43.945312 175.488281 91.484375 175.488281 C 139.027344 175.488281 177.566406 136.949219 177.566406 89.410156 C 177.566406 87.976562 177.527344 86.554688 177.460938 85.140625 C 175.316406 126.945312 140.742188 160.183594 98.402344 160.183594 " fill-opacity="1" fill-rule="nonzero"/></g></g><g clip-path="url(#6d89045c23)"><g clip-path="url(#b463e28850)"><path fill="#ffffff" d="M 27.242188 96.691406 L 39.382812 96.691406 C 39.714844 98.101562 40.324219 99.113281 41.203125 99.726562 C 42.085938 100.34375 43.394531 100.652344 45.136719 100.652344 C 46.59375 100.652344 47.746094 100.398438 48.578125 99.898438 C 49.414062 99.398438 49.832031 98.707031 49.832031 97.828125 C 49.832031 96.421875 48.082031 95.277344 44.582031 94.394531 C 43.878906 94.222656 43.34375 94.089844 42.972656 94 C 40.105469 93.261719 37.820312 92.589844 36.125 91.980469 C 34.425781 91.375 33.191406 90.808594 32.417969 90.277344 C 30.921875 89.207031 29.800781 87.921875 29.050781 86.425781 C 28.304688 84.929688 27.929688 83.226562 27.929688 81.308594 C 27.929688 77.453125 29.382812 74.425781 32.285156 72.226562 C 35.1875 70.027344 39.183594 68.929688 44.265625 68.929688 C 49.261719 68.929688 53.195312 69.980469 56.0625 72.082031 C 58.929688 74.1875 60.546875 77.199219 60.917969 81.121094 L 49.070312 81.121094 C 48.875 79.980469 48.367188 79.125 47.550781 78.5625 C 46.734375 78 45.566406 77.71875 44.054688 77.71875 C 42.714844 77.71875 41.722656 77.9375 41.074219 78.378906 C 40.421875 78.820312 40.097656 79.484375 40.097656 80.382812 C 40.097656 81.667969 41.800781 82.742188 45.214844 83.601562 C 45.515625 83.691406 45.742188 83.753906 45.902344 83.789062 C 46.394531 83.910156 47.140625 84.097656 48.144531 84.339844 C 52.667969 85.488281 55.621094 86.523438 57.011719 87.457031 C 58.738281 88.597656 59.996094 89.902344 60.785156 91.363281 C 61.578125 92.824219 61.972656 94.546875 61.972656 96.535156 C 61.972656 100.824219 60.472656 104.125 57.472656 106.429688 C 54.472656 108.738281 50.175781 109.886719 44.582031 109.886719 C 39.425781 109.886719 35.339844 108.738281 32.324219 106.429688 C 29.304688 104.125 27.613281 100.878906 27.242188 96.691406 " fill-opacity="1" fill-rule="nonzero"/></g></g><g clip-path="url(#f5fc26a26e)"><g clip-path="url(#125d8ca8c8)"><path fill="#ffffff" d="M 83.925781 89.410156 C 83.925781 93.085938 84.539062 95.785156 85.773438 97.511719 C 87.003906 99.234375 88.929688 100.097656 91.550781 100.097656 C 94.15625 100.097656 96.066406 99.238281 97.277344 97.523438 C 98.492188 95.808594 99.101562 93.105469 99.101562 89.410156 C 99.101562 85.699219 98.492188 82.984375 97.277344 81.265625 C 96.066406 79.554688 94.15625 78.695312 91.550781 78.695312 C 88.929688 78.695312 87.003906 79.558594 85.773438 81.28125 C 84.539062 83.003906 83.925781 85.714844 83.925781 89.410156 Z M 71.335938 89.410156 C 71.335938 83.074219 73.144531 78.078125 76.757812 74.421875 C 80.375 70.757812 85.308594 68.929688 91.550781 68.929688 C 97.78125 68.929688 102.695312 70.757812 106.304688 74.421875 C 109.910156 78.078125 111.714844 83.074219 111.714844 89.410156 C 111.714844 95.726562 109.910156 100.71875 106.304688 104.386719 C 102.695312 108.054688 97.78125 109.886719 91.550781 109.886719 C 85.308594 109.886719 80.375 108.054688 76.757812 104.386719 C 73.144531 100.71875 71.335938 95.726562 71.335938 89.410156 " fill-opacity="1" fill-rule="nonzero"/></g></g><g clip-path="url(#6225898d57)"><g clip-path="url(#6c13a8dd72)"><path fill="#ffffff" d="M 121 96.691406 L 133.136719 96.691406 C 133.472656 98.101562 134.078125 99.113281 134.960938 99.726562 C 135.839844 100.34375 137.148438 100.652344 138.890625 100.652344 C 140.351562 100.652344 141.5 100.398438 142.335938 99.898438 C 143.171875 99.398438 143.589844 98.707031 143.589844 97.828125 C 143.589844 96.421875 141.839844 95.277344 138.335938 94.394531 C 137.632812 94.222656 137.097656 94.089844 136.726562 94 C 133.859375 93.261719 131.578125 92.589844 129.878906 91.980469 C 128.179688 91.375 126.945312 90.808594 126.171875 90.277344 C 124.675781 89.207031 123.554688 87.921875 122.804688 86.425781 C 122.058594 84.929688 121.6875 83.226562 121.6875 81.308594 C 121.6875 77.453125 123.136719 74.425781 126.039062 72.226562 C 128.941406 70.027344 132.9375 68.929688 138.019531 68.929688 C 143.015625 68.929688 146.949219 69.980469 149.816406 72.082031 C 152.683594 74.1875 154.304688 77.199219 154.671875 81.121094 L 142.820312 81.121094 C 142.628906 79.980469 142.125 79.125 141.304688 78.5625 C 140.488281 78 139.324219 77.71875 137.808594 77.71875 C 136.472656 77.71875 135.476562 77.9375 134.824219 78.378906 C 134.175781 78.820312 133.851562 79.484375 133.851562 80.382812 C 133.851562 81.667969 135.554688 82.742188 138.96875 83.601562 C 139.269531 83.691406 139.5 83.753906 139.65625 83.789062 C 140.148438 83.910156 140.898438 84.097656 141.898438 84.339844 C 146.421875 85.488281 149.375 86.523438 150.765625 87.457031 C 152.488281 88.597656 153.75 89.902344 154.542969 91.363281 C 155.332031 92.824219 155.726562 94.546875 155.726562 96.535156 C 155.726562 100.824219 154.226562 104.125 151.230469 106.429688 C 148.230469 108.738281 143.929688 109.886719 138.335938 109.886719 C 133.183594 109.886719 129.09375 108.738281 126.078125 106.429688 C 123.0625 104.125 121.367188 100.878906 121 96.691406 " fill-opacity="1" fill-rule="nonzero"/></g></g><g clip-path="url(#c09749a643)"><g clip-path="url(#841420c98b)"><path fill="#d7596d" d="M 91.484375 189.457031 C 36.230469 189.457031 -8.5625 144.664062 -8.5625 89.410156 C -8.5625 34.152344 36.230469 -10.640625 91.484375 -10.640625 C 146.742188 -10.640625 191.535156 34.152344 191.535156 89.410156 C 191.535156 144.664062 146.742188 189.457031 91.484375 189.457031 Z M 91.484375 -25.628906 C 27.953125 -25.628906 -23.550781 25.875 -23.550781 89.410156 C -23.550781 152.941406 27.953125 204.445312 91.484375 204.445312 C 155.019531 204.445312 206.523438 152.941406 206.523438 89.410156 C 206.523438 25.875 155.019531 -25.628906 91.484375 -25.628906 " fill-opacity="1" fill-rule="nonzero"/></g></g></svg>