<svg xmlns="http://www.w3.org/2000/svg" xmlns:xlink="http://www.w3.org/1999/xlink" width="223" zoomAndPan="magnify" viewBox="0 0 167.25 230.999993" height="308" preserveAspectRatio="xMidYMid meet" version="1.0"><defs><clipPath id="e8c9c0e2d7"><path d="M 28.65625 17.289062 L 136.917969 17.289062 L 136.917969 125.554688 L 28.65625 125.554688 Z M 28.65625 17.289062 " clip-rule="nonzero"/></clipPath><clipPath id="ba4081a2a9"><path d="M 21 0.515625 L 108 0.515625 L 108 61 L 21 61 Z M 21 0.515625 " clip-rule="nonzero"/></clipPath><clipPath id="9b8f81a465"><path d="M 47 43 L 163.445312 43 L 163.445312 228.058594 L 47 228.058594 Z M 47 43 " clip-rule="nonzero"/></clipPath><clipPath id="79f331be37"><path d="M 2.308594 28 L 60 28 L 60 118 L 2.308594 118 Z M 2.308594 28 " clip-rule="nonzero"/></clipPath></defs><g clip-path="url(#e8c9c0e2d7)"><path fill="#282960" d="M 136.871094 71.398438 C 136.871094 73.167969 136.785156 74.9375 136.609375 76.699219 C 136.4375 78.464844 136.175781 80.214844 135.832031 81.953125 C 135.484375 83.691406 135.054688 85.410156 134.539062 87.105469 C 134.027344 88.800781 133.429688 90.464844 132.75 92.105469 C 132.074219 93.742188 131.316406 95.339844 130.480469 96.902344 C 129.644531 98.464844 128.734375 99.984375 127.75 101.457031 C 126.765625 102.929688 125.710938 104.351562 124.589844 105.722656 C 123.464844 107.09375 122.277344 108.40625 121.023438 109.65625 C 119.769531 110.910156 118.457031 112.097656 117.089844 113.222656 C 115.71875 114.347656 114.296875 115.402344 112.824219 116.386719 C 111.351562 117.371094 109.832031 118.28125 108.269531 119.117188 C 106.707031 119.953125 105.105469 120.707031 103.46875 121.386719 C 101.832031 122.066406 100.164062 122.660156 98.46875 123.175781 C 96.773438 123.691406 95.054688 124.121094 93.320312 124.464844 C 91.582031 124.8125 89.828125 125.070312 88.066406 125.246094 C 86.300781 125.417969 84.535156 125.503906 82.761719 125.503906 C 80.992188 125.503906 79.222656 125.417969 77.460938 125.246094 C 75.695312 125.070312 73.945312 124.8125 72.207031 124.464844 C 70.46875 124.121094 68.75 123.691406 67.054688 123.175781 C 65.359375 122.660156 63.695312 122.066406 62.054688 121.386719 C 60.417969 120.707031 58.820312 119.953125 57.257812 119.117188 C 55.691406 118.28125 54.175781 117.371094 52.703125 116.386719 C 51.226562 115.402344 49.804688 114.347656 48.4375 113.222656 C 47.066406 112.097656 45.753906 110.910156 44.503906 109.65625 C 43.25 108.40625 42.0625 107.09375 40.9375 105.722656 C 39.8125 104.351562 38.757812 102.929688 37.773438 101.457031 C 36.789062 99.984375 35.878906 98.464844 35.042969 96.902344 C 34.207031 95.339844 33.453125 93.742188 32.773438 92.105469 C 32.09375 90.464844 31.5 88.800781 30.984375 87.105469 C 30.46875 85.410156 30.039062 83.691406 29.695312 81.953125 C 29.347656 80.214844 29.089844 78.464844 28.914062 76.699219 C 28.742188 74.9375 28.65625 73.167969 28.65625 71.398438 C 28.65625 69.625 28.742188 67.855469 28.914062 66.09375 C 29.089844 64.332031 29.347656 62.578125 29.695312 60.839844 C 30.039062 59.101562 30.46875 57.386719 30.984375 55.691406 C 31.5 53.996094 32.09375 52.328125 32.773438 50.691406 C 33.453125 49.054688 34.207031 47.453125 35.042969 45.890625 C 35.878906 44.328125 36.789062 42.808594 37.773438 41.335938 C 38.757812 39.863281 39.8125 38.441406 40.9375 37.070312 C 42.0625 35.703125 43.25 34.390625 44.503906 33.136719 C 45.753906 31.882812 47.066406 30.695312 48.4375 29.570312 C 49.804688 28.445312 51.226562 27.390625 52.703125 26.40625 C 54.175781 25.421875 55.691406 24.511719 57.257812 23.679688 C 58.820312 22.84375 60.417969 22.085938 62.054688 21.40625 C 63.695312 20.730469 65.359375 20.132812 67.054688 19.617188 C 68.75 19.105469 70.46875 18.675781 72.207031 18.328125 C 73.945312 17.984375 75.695312 17.722656 77.460938 17.550781 C 79.222656 17.375 80.992188 17.289062 82.761719 17.289062 C 84.535156 17.289062 86.300781 17.375 88.066406 17.550781 C 89.828125 17.722656 91.582031 17.984375 93.320312 18.328125 C 95.054688 18.675781 96.773438 19.105469 98.46875 19.617188 C 100.164062 20.132812 101.832031 20.730469 103.46875 21.40625 C 105.105469 22.085938 106.707031 22.84375 108.269531 23.679688 C 109.832031 24.511719 111.351562 25.421875 112.824219 26.40625 C 114.296875 27.390625 115.71875 28.445312 117.089844 29.570312 C 118.457031 30.695312 119.769531 31.882812 121.023438 33.136719 C 122.277344 34.390625 123.464844 35.703125 124.589844 37.070312 C 125.710938 38.441406 126.765625 39.863281 127.75 41.335938 C 128.734375 42.808594 129.644531 44.328125 130.480469 45.890625 C 131.316406 47.453125 132.074219 49.054688 132.75 50.691406 C 133.429688 52.328125 134.027344 53.996094 134.539062 55.691406 C 135.054688 57.386719 135.484375 59.101562 135.832031 60.839844 C 136.175781 62.578125 136.4375 64.332031 136.609375 66.09375 C 136.785156 67.855469 136.871094 69.625 136.871094 71.398438 Z M 136.871094 71.398438 " fill-opacity="1" fill-rule="nonzero"/></g><path fill="#282960" d="M 106.355469 99.289062 L 139.515625 74.402344 L 154.238281 43.101562 C 144.4375 24.664062 127.507812 10.472656 107.15625 4.171875 L 76.554688 24.539062 L 59.195312 60.363281 C 64.835938 53.628906 73.300781 49.386719 82.816406 49.386719 C 99.902344 49.386719 113.5625 63 113.5625 79.679688 C 113.542969 87.136719 110.816406 94.015625 106.355469 99.289062 Z M 106.355469 99.289062 " fill-opacity="1" fill-rule="nonzero"/><g clip-path="url(#ba4081a2a9)"><path fill="#282960" d="M 82.800781 0.515625 C 58 0.515625 36.023438 11.492188 21.167969 28.90625 L 35.3125 51.738281 L 59.195312 60.375 C 59.339844 60.234375 107.171875 4.1875 107.171875 4.1875 C 99.4375 1.835938 91.265625 0.515625 82.800781 0.515625 Z M 82.800781 0.515625 " fill-opacity="1" fill-rule="nonzero"/></g><path fill="#282960" d="M 106.355469 99.289062 C 100.710938 105.867188 92.3125 110.121094 82.800781 110.121094 C 65.714844 110.121094 52.054688 96.511719 52.054688 79.828125 C 52.054688 72.65625 55.023438 65.492188 59.179688 60.371094 L 23.945312 85.195312 L 10.324219 117.722656 C 18.785156 135.863281 32.75 150.496094 47.160156 168.792969 L 84.921875 139.183594 Z M 106.355469 99.289062 " fill-opacity="1" fill-rule="nonzero"/><g clip-path="url(#9b8f81a465)"><path fill="#282960" d="M 163.449219 79.832031 C 163.449219 66.511719 160.039062 54.078125 154.238281 43.097656 L 47.148438 168.792969 C 51.898438 174.792969 56.503906 181.230469 61.109375 188.25 C 77.460938 213.136719 72.554688 228.058594 82.957031 228.058594 C 93.507812 228.058594 88.902344 213.140625 105.242188 188.25 C 132.109375 146.839844 163.449219 127.964844 163.449219 79.832031 Z M 163.449219 79.832031 " fill-opacity="1" fill-rule="nonzero"/></g><g clip-path="url(#79f331be37)"><path fill="#282960" d="M 59.191406 60.363281 L 21.167969 28.90625 C 9.433594 42.664062 2.308594 60.515625 2.308594 79.832031 C 2.308594 94.75 5.277344 106.902344 10.324219 117.722656 Z M 59.191406 60.363281 " fill-opacity="1" fill-rule="nonzero"/></g></svg>