<svg xmlns="http://www.w3.org/2000/svg" xmlns:xlink="http://www.w3.org/1999/xlink" width="673" zoomAndPan="magnify" viewBox="0 0 504.75 413.999985" height="552" preserveAspectRatio="xMidYMid meet" version="1.0"><defs><clipPath id="86a031a1b0"><path d="M 0.191406 72 L 504.308594 72 L 504.308594 413.859375 L 0.191406 413.859375 Z M 0.191406 72 " clip-rule="nonzero"/></clipPath><clipPath id="0c233f1b66"><path d="M 63 0.101562 L 208 0.101562 L 208 209 L 63 209 Z M 63 0.101562 " clip-rule="nonzero"/></clipPath></defs><path fill="#ffffff" d="M 330.644531 159.808594 L 331.679688 169.835938 C 334.996094 169.515625 338.429688 169.34375 341.890625 169.34375 C 344.742188 169.34375 347.691406 169.457031 350.636719 169.683594 L 351.433594 159.632812 C 348.222656 159.390625 345.011719 159.265625 341.890625 159.265625 C 338.089844 159.265625 334.308594 159.449219 330.644531 159.808594 " fill-opacity="1" fill-rule="nonzero"/><path fill="#ffffff" d="M 290.957031 172.289062 L 296.175781 180.984375 C 301.578125 177.894531 307.332031 175.386719 313.273438 173.53125 L 310.128906 163.929688 C 303.46875 166.011719 297.019531 168.820312 290.957031 172.289062 " fill-opacity="1" fill-rule="nonzero"/><path fill="#ffffff" d="M 153.011719 309.914062 C 159.820312 308.5625 166.519531 306.664062 172.921875 304.273438 L 169.230469 294.859375 C 163.355469 297.050781 157.207031 298.792969 150.953125 300.039062 L 153.011719 309.914062 " fill-opacity="1" fill-rule="nonzero"/><path fill="#ffffff" d="M 259.984375 199.238281 L 268.097656 205.464844 C 272.15625 200.429688 276.503906 195.851562 281.023438 191.875 L 274.109375 184.390625 C 269.152344 188.753906 264.402344 193.75 259.984375 199.238281 " fill-opacity="1" fill-rule="nonzero"/><path fill="#ffffff" d="M 112.8125 301.90625 L 111.894531 311.945312 C 116.503906 312.34375 121.121094 312.550781 125.613281 312.550781 C 127.914062 312.550781 130.226562 312.5 132.488281 312.390625 L 132 302.324219 C 129.898438 302.421875 127.75 302.46875 125.613281 302.46875 C 121.421875 302.46875 117.117188 302.28125 112.8125 301.90625 " fill-opacity="1" fill-rule="nonzero"/><path fill="#ffffff" d="M 202.011719 276.125 C 197.019531 280.121094 191.757812 283.710938 186.371094 286.796875 L 191.601562 295.492188 C 197.445312 292.140625 203.148438 288.25 208.554688 283.925781 L 202.011719 276.125 " fill-opacity="1" fill-rule="nonzero"/><path fill="#ffffff" d="M 228.171875 248.710938 C 224.289062 253.914062 220.175781 258.816406 215.949219 263.269531 L 223.527344 270.121094 C 228.023438 265.375 232.394531 260.167969 236.515625 254.644531 L 228.171875 248.710938 " fill-opacity="1" fill-rule="nonzero"/><path fill="#ffffff" d="M 71.851562 303.765625 C 78.425781 305.851562 85.074219 307.59375 91.605469 308.945312 L 93.742188 299.085938 C 87.570312 297.804688 81.273438 296.15625 75.042969 294.175781 L 71.851562 303.765625 " fill-opacity="1" fill-rule="nonzero"/><path fill="#ffffff" d="M 406.214844 184.773438 C 411.949219 187.304688 417.828125 190.175781 423.6875 193.304688 L 428.640625 184.460938 C 422.554688 181.210938 416.441406 178.222656 410.46875 175.589844 L 406.214844 184.773438 " fill-opacity="1" fill-rule="nonzero"/><path fill="#ffffff" d="M 369.570312 172.507812 C 375.597656 173.828125 381.851562 175.578125 388.160156 177.710938 L 391.539062 168.1875 C 384.863281 165.929688 378.234375 164.074219 371.828125 162.671875 L 369.570312 172.507812 " fill-opacity="1" fill-rule="nonzero"/><g clip-path="url(#86a031a1b0)"><path fill="#ffffff" d="M 375.132812 270.410156 L 369.613281 270.753906 L 365.546875 274.511719 L 296.851562 337.894531 L 233.035156 145.800781 L 300.9375 87.855469 L 396.417969 91.429688 L 446.671875 194.890625 C 446.476562 194.769531 446.28125 194.648438 446.085938 194.527344 L 440.558594 203.039062 C 445.539062 206.125 450.511719 209.402344 455.363281 212.785156 L 480.121094 263.753906 Z M 406.351562 76.1875 L 295.441406 72.039062 L 221.324219 135.289062 L 203.011719 132.0625 C 200.621094 136.722656 198.003906 141.546875 195.167969 146.519531 L 218.1875 150.578125 L 243.054688 225.417969 C 241.65625 227.960938 240.222656 230.453125 238.777344 232.867188 L 247.113281 237.648438 L 282.347656 343.699219 L 175.738281 338.828125 L 171.128906 338.613281 L 167.148438 340.945312 L 82.507812 390.476562 L 53.109375 295.886719 L 56.90625 287.433594 C 54.113281 286.234375 51.605469 285.082031 49.433594 284.039062 L 18.597656 184.824219 L 76.273438 147.566406 C 73.570312 142.859375 71.0625 138.285156 68.753906 133.851562 L 0.191406 178.144531 L 73.441406 413.859375 L 175.023438 354.410156 L 295.957031 359.941406 L 376.121094 285.976562 L 504.308594 277.855469 L 406.351562 76.1875 " fill-opacity="1" fill-rule="nonzero"/></g><g clip-path="url(#0c233f1b66)"><path fill="#ffffff" d="M 96.375 67.289062 C 96.375 45.71875 113.859375 28.230469 135.421875 28.230469 C 156.984375 28.230469 174.464844 45.71875 174.464844 67.289062 C 174.464844 88.855469 156.984375 106.34375 135.421875 106.34375 C 113.859375 106.34375 96.375 88.855469 96.375 67.289062 Z M 207.074219 71.769531 C 207.074219 32.1875 174.992188 0.0976562 135.421875 0.0976562 C 95.847656 0.0976562 63.765625 32.1875 63.765625 71.769531 C 63.765625 118.003906 135.421875 208.386719 135.421875 208.386719 C 135.421875 208.386719 207.074219 118.003906 207.074219 71.769531 " fill-opacity="1" fill-rule="nonzero"/></g></svg>