<svg xmlns="http://www.w3.org/2000/svg" xmlns:xlink="http://www.w3.org/1999/xlink" width="591" zoomAndPan="magnify" viewBox="0 0 443.25 443.249984" height="591" preserveAspectRatio="xMidYMid meet" version="1.0"><defs><clipPath id="6be0a6c0b6"><path d="M 0 0 L 441.753906 0 L 441.753906 441.753906 L 0 441.753906 Z M 0 0 " clip-rule="nonzero"/></clipPath><clipPath id="68c60d09eb"><path d="M 220.875 0 C 98.890625 0 0 98.890625 0 220.875 C 0 342.863281 98.890625 441.753906 220.875 441.753906 C 342.863281 441.753906 441.753906 342.863281 441.753906 220.875 C 441.753906 98.890625 342.863281 0 220.875 0 Z M 220.875 0 " clip-rule="nonzero"/></clipPath><clipPath id="c3455abb21"><path d="M 105 72 L 336 72 L 336 221 L 105 221 Z M 105 72 " clip-rule="nonzero"/></clipPath><clipPath id="eebe0a3623"><path d="M 113.433594 59.128906 L 342.304688 80.449219 L 328.136719 232.53125 L 99.269531 211.214844 Z M 113.433594 59.128906 " clip-rule="nonzero"/></clipPath><clipPath id="7f31ed8ee8"><path d="M 113.433594 59.128906 L 342.304688 80.449219 L 328.136719 232.53125 L 99.269531 211.214844 Z M 113.433594 59.128906 " clip-rule="nonzero"/></clipPath><clipPath id="5292f8d9bc"><path d="M 113.433594 59.128906 L 342.304688 80.449219 L 328.136719 232.53125 L 99.269531 211.214844 Z M 113.433594 59.128906 " clip-rule="nonzero"/></clipPath></defs><g clip-path="url(#6be0a6c0b6)"><g clip-path="url(#68c60d09eb)"><path stroke-linecap="butt" transform="matrix(0.748733, 0, 0, 0.748733, 0.000008, 0.000000000000042561)" fill="none" stroke-linejoin="miter" d="M 294.998301 -0.000000000000056843 C 132.077261 -0.000000000000056843 -0.0000106847 132.077272 -0.0000106847 294.998312 C -0.0000106847 457.924569 132.077261 590.001841 294.998301 590.001841 C 457.924559 590.001841 590.00183 457.924569 590.00183 294.998312 C 590.00183 132.077272 457.924559 -0.000000000000056843 294.998301 -0.000000000000056843 Z M 294.998301 -0.000000000000056843 " stroke="#000000" stroke-width="50" stroke-opacity="1" stroke-miterlimit="4"/></g></g><g clip-path="url(#c3455abb21)"><g clip-path="url(#eebe0a3623)"><g clip-path="url(#7f31ed8ee8)"><g clip-path="url(#5292f8d9bc)"><path fill="#000000" d="M 217.15625 207.433594 C 230.429688 208.972656 244.714844 207.449219 258.613281 202.816406 C 278.085938 196.324219 294.003906 185.050781 304.953125 167.332031 C 308.332031 161.878906 310.78125 156.007812 312.644531 149.878906 C 313.222656 147.988281 312.902344 146.492188 311.203125 145.335938 C 310.085938 144.589844 308.949219 143.828125 307.992188 142.886719 C 306.128906 141.050781 305.753906 138.585938 306.84375 136.527344 C 308.035156 134.246094 310.621094 133.027344 313.214844 133.753906 C 314.867188 134.226562 316.441406 135.015625 318.023438 135.707031 C 321.910156 137.40625 325.796875 139.105469 329.636719 140.882812 C 331.03125 141.523438 332.414062 142.273438 333.597656 143.230469 C 335.351562 144.660156 336.113281 146.648438 335.621094 148.933594 C 335.078125 151.398438 333.53125 153.027344 331.074219 153.683594 C 330.339844 153.871094 329.550781 153.90625 328.785156 153.921875 C 324.914062 154.035156 324.867188 154.003906 323.589844 157.566406 C 315.179688 180.929688 299.324219 197.597656 277.460938 208.726562 C 261.355469 216.929688 244.171875 220.464844 226.140625 220.585938 C 201.714844 220.75 179.351562 213.941406 158.84375 201.015625 C 142.386719 190.65625 129.355469 176.882812 120.34375 159.476562 C 120.078125 158.964844 119.835938 158.433594 119.558594 157.921875 C 118.398438 155.933594 117.847656 155.722656 115.871094 156.546875 C 114.988281 156.914062 114.164062 157.457031 113.253906 157.746094 C 110.667969 158.574219 108.261719 157.757812 106.601562 155.585938 C 104.949219 153.414062 104.894531 150.992188 106.464844 148.578125 C 107.539062 146.929688 109.054688 145.734375 110.605469 144.566406 C 114.601562 141.550781 118.601562 138.523438 122.65625 135.558594 C 123.890625 134.667969 125.226562 133.832031 126.636719 133.28125 C 129.160156 132.292969 131.773438 133.25 133.203125 135.449219 C 134.546875 137.503906 134.425781 139.851562 132.832031 141.914062 C 132.472656 142.363281 132.082031 142.8125 131.625 143.148438 C 127.570312 146.121094 128.824219 147.625 130.414062 151.0625 C 137.882812 167.109375 149.472656 179.546875 164.007812 189.269531 C 179.695312 199.742188 197.019531 205.773438 217.15625 207.433594 Z M 172.976562 94.554688 C 173.242188 91.703125 173.414062 89.59375 173.644531 87.488281 C 173.765625 86.335938 173.851562 85.164062 174.144531 84.0625 C 174.925781 81.039062 177.242188 79.175781 179.871094 79.300781 C 182.460938 79.421875 184.589844 81.511719 185.191406 84.558594 C 185.339844 85.300781 185.449219 86.085938 185.425781 86.851562 C 185.15625 97.828125 186.019531 108.828125 185.15625 119.796875 C 185.035156 121.34375 184.964844 122.890625 184.628906 124.390625 C 183.957031 127.472656 181.832031 129.339844 179.132812 129.464844 C 176.285156 129.613281 173.660156 127.617188 172.976562 124.421875 C 172.539062 122.363281 172.367188 120.210938 172.390625 118.101562 C 172.515625 110.011719 172.785156 101.921875 172.976562 94.554688 Z M 248.5625 83.074219 C 248.738281 81.195312 248.78125 79.453125 249.085938 77.742188 C 249.59375 74.875 251.484375 73.023438 253.957031 72.757812 C 256.585938 72.464844 259.066406 74.179688 260.03125 77.085938 C 260.402344 78.164062 260.632812 79.339844 260.648438 80.484375 C 260.757812 88.390625 260.820312 96.289062 260.847656 104.1875 C 260.859375 107.453125 260.722656 110.734375 260.734375 114.011719 C 260.726562 115.761719 260.675781 117.480469 260.027344 119.132812 C 258.859375 122.0625 256.601562 123.792969 254.003906 123.710938 C 251.386719 123.636719 249.195312 121.792969 248.378906 118.714844 C 248.039062 117.433594 247.890625 116.058594 247.917969 114.726562 C 248.09375 104.128906 248.339844 93.535156 248.5625 83.074219 Z M 248.5625 83.074219 " fill-opacity="1" fill-rule="nonzero"/></g></g></g></g></svg>