<svg xmlns="http://www.w3.org/2000/svg" xmlns:xlink="http://www.w3.org/1999/xlink" width="841" zoomAndPan="magnify" viewBox="0 0 630.75 206.249992" height="275" preserveAspectRatio="xMidYMid meet" version="1.0"><defs><clipPath id="3ad14a9597"><path d="M 4 3 L 172.859375 3 L 172.859375 202 L 4 202 Z M 4 3 " clip-rule="nonzero"/></clipPath><clipPath id="7c8ce55a67"><path d="M -126.789062 32.820312 L -126.789062 177.71875 C -126.789062 377.628906 35.269531 539.6875 235.179688 539.6875 L 380.078125 539.6875 C 579.988281 539.6875 742.046875 377.628906 742.046875 177.71875 L 742.046875 32.820312 C 742.046875 -167.089844 579.988281 -329.148438 380.078125 -329.148438 L 235.179688 -329.148438 C 35.269531 -329.148438 -126.789062 -167.089844 -126.789062 32.820312 Z M -126.789062 32.820312 " clip-rule="nonzero"/></clipPath><clipPath id="e674b82d6e"><path d="M 217 3 L 414 3 L 414 202 L 217 202 Z M 217 3 " clip-rule="nonzero"/></clipPath><clipPath id="b1a905200d"><path d="M -126.789062 32.820312 L -126.789062 177.71875 C -126.789062 377.628906 35.269531 539.6875 235.179688 539.6875 L 380.078125 539.6875 C 579.988281 539.6875 742.046875 377.628906 742.046875 177.71875 L 742.046875 32.820312 C 742.046875 -167.089844 579.988281 -329.148438 380.078125 -329.148438 L 235.179688 -329.148438 C 35.269531 -329.148438 -126.789062 -167.089844 -126.789062 32.820312 Z M -126.789062 32.820312 " clip-rule="nonzero"/></clipPath><clipPath id="f49acb8d3d"><path d="M 458.011719 3 L 626 3 L 626 202 L 458.011719 202 Z M 458.011719 3 " clip-rule="nonzero"/></clipPath><clipPath id="148042c4ef"><path d="M -126.789062 32.820312 L -126.789062 177.71875 C -126.789062 377.628906 35.269531 539.6875 235.179688 539.6875 L 380.078125 539.6875 C 579.988281 539.6875 742.046875 377.628906 742.046875 177.71875 L 742.046875 32.820312 C 742.046875 -167.089844 579.988281 -329.148438 380.078125 -329.148438 L 235.179688 -329.148438 C 35.269531 -329.148438 -126.789062 -167.089844 -126.789062 32.820312 Z M -126.789062 32.820312 " clip-rule="nonzero"/></clipPath></defs><g clip-path="url(#3ad14a9597)"><g clip-path="url(#7c8ce55a67)"><path fill="#ffffff" d="M 4.875 138.167969 L 63.550781 138.167969 C 65.15625 144.980469 68.101562 149.871094 72.347656 152.835938 C 76.613281 155.820312 82.9375 157.308594 91.359375 157.308594 C 98.402344 157.308594 103.96875 156.082031 107.992188 153.667969 C 112.03125 151.25 114.050781 147.90625 114.050781 143.660156 C 114.050781 136.863281 105.59375 131.332031 88.679688 127.066406 C 85.28125 126.234375 82.695312 125.59375 80.898438 125.160156 C 67.042969 121.589844 56 118.34375 47.804688 115.398438 C 39.59375 112.472656 33.625 109.734375 29.890625 107.167969 C 22.65625 101.996094 17.238281 95.78125 13.613281 88.550781 C 10.007812 81.320312 8.195312 73.089844 8.195312 63.820312 C 8.195312 45.1875 15.21875 30.554688 29.246094 19.925781 C 43.273438 9.296875 62.585938 3.992188 87.148438 3.992188 C 111.296875 3.992188 130.308594 9.070312 144.164062 19.226562 C 158.019531 29.402344 165.835938 43.960938 167.628906 62.914062 L 110.371094 62.914062 C 109.425781 57.402344 106.972656 53.265625 103.027344 50.546875 C 99.082031 47.832031 93.4375 46.472656 86.128906 46.472656 C 79.652344 46.472656 74.859375 47.527344 71.726562 49.660156 C 68.570312 51.792969 67.003906 55.003906 67.003906 59.347656 C 67.003906 65.558594 75.238281 70.75 91.738281 74.902344 C 93.191406 75.335938 94.285156 75.640625 95.058594 75.808594 C 97.4375 76.394531 101.042969 77.300781 105.894531 78.472656 C 127.757812 84.019531 142.03125 89.023438 148.75 93.535156 C 157.097656 99.050781 163.175781 105.355469 166.988281 112.414062 C 170.820312 119.476562 172.726562 127.800781 172.726562 137.410156 C 172.726562 158.140625 165.476562 174.09375 150.980469 185.230469 C 136.480469 196.390625 115.714844 201.941406 88.679688 201.941406 C 63.757812 201.941406 44.011719 196.390625 29.4375 185.230469 C 14.84375 174.09375 6.667969 158.40625 4.875 138.167969 " fill-opacity="1" fill-rule="nonzero"/></g></g><g clip-path="url(#e674b82d6e)"><g clip-path="url(#b1a905200d)"><path fill="#ffffff" d="M 278.828125 102.976562 C 278.828125 120.742188 281.792969 133.785156 287.757812 142.132812 C 293.707031 150.457031 303.011719 154.628906 315.679688 154.628906 C 328.273438 154.628906 337.503906 150.476562 343.355469 142.1875 C 349.230469 133.898438 352.171875 120.835938 352.171875 102.976562 C 352.171875 85.039062 349.230469 71.917969 343.355469 63.613281 C 337.503906 55.34375 328.273438 51.191406 315.679688 51.191406 C 303.011719 51.191406 293.707031 55.363281 287.757812 63.6875 C 281.792969 72.015625 278.828125 85.117188 278.828125 102.976562 Z M 217.980469 102.976562 C 217.980469 72.355469 226.722656 48.207031 244.183594 30.535156 C 261.667969 12.828125 285.511719 3.992188 315.679688 3.992188 C 345.792969 3.992188 369.542969 12.828125 386.988281 30.535156 C 404.414062 48.207031 413.132812 72.355469 413.132812 102.976562 C 413.132812 133.503906 404.414062 157.632812 386.988281 175.359375 C 369.542969 193.085938 345.792969 201.941406 315.679688 201.941406 C 285.511719 201.941406 261.667969 193.085938 244.183594 175.359375 C 226.722656 157.632812 217.980469 133.503906 217.980469 102.976562 " fill-opacity="1" fill-rule="nonzero"/></g></g><g clip-path="url(#f49acb8d3d)"><g clip-path="url(#148042c4ef)"><path fill="#ffffff" d="M 458.011719 138.167969 L 516.667969 138.167969 C 518.289062 144.980469 521.21875 149.871094 525.484375 152.835938 C 529.730469 155.820312 536.054688 157.308594 544.476562 157.308594 C 551.535156 157.308594 557.085938 156.082031 561.128906 153.667969 C 565.167969 151.25 567.1875 147.90625 567.1875 143.660156 C 567.1875 136.863281 558.730469 131.332031 541.796875 127.066406 C 538.398438 126.234375 535.8125 125.59375 534.015625 125.160156 C 520.160156 121.589844 509.132812 118.34375 500.921875 115.398438 C 492.710938 112.472656 486.742188 109.734375 483.007812 107.167969 C 475.773438 101.996094 470.355469 95.78125 466.730469 88.550781 C 463.125 81.320312 461.332031 73.089844 461.332031 63.820312 C 461.332031 45.1875 468.335938 30.554688 482.363281 19.925781 C 496.390625 9.296875 515.703125 3.992188 540.265625 3.992188 C 564.414062 3.992188 583.421875 9.070312 597.28125 19.226562 C 611.136719 29.402344 618.972656 43.960938 620.746094 62.914062 L 563.46875 62.914062 C 562.542969 57.402344 560.109375 53.265625 556.144531 50.546875 C 552.199219 47.832031 546.570312 46.472656 539.246094 46.472656 C 532.789062 46.472656 527.976562 47.527344 524.824219 49.660156 C 521.6875 51.792969 520.121094 55.003906 520.121094 59.347656 C 520.121094 65.558594 528.351562 70.75 544.855469 74.902344 C 546.308594 75.335938 547.421875 75.640625 548.175781 75.808594 C 550.554688 76.394531 554.179688 77.300781 559.011719 78.472656 C 580.875 84.019531 595.148438 89.023438 601.867188 93.535156 C 610.195312 99.050781 616.292969 105.355469 620.125 112.414062 C 623.9375 119.476562 625.84375 127.800781 625.84375 137.410156 C 625.84375 158.140625 618.59375 174.09375 604.117188 185.230469 C 589.617188 196.390625 568.832031 201.941406 541.796875 201.941406 C 516.894531 201.941406 497.128906 196.390625 482.554688 185.230469 C 467.976562 174.09375 459.785156 158.40625 458.011719 138.167969 " fill-opacity="1" fill-rule="nonzero"/></g></g></svg>