<svg xmlns="http://www.w3.org/2000/svg" xmlns:xlink="http://www.w3.org/1999/xlink" width="591" zoomAndPan="magnify" viewBox="0 0 443.25 443.249984" height="591" preserveAspectRatio="xMidYMid meet" version="1.0"><defs><clipPath id="669de2c488"><path d="M 0 0 L 441.753906 0 L 441.753906 441.753906 L 0 441.753906 Z M 0 0 " clip-rule="nonzero"/></clipPath><clipPath id="2c472a6cb6"><path d="M 148 72 L 296 72 L 296 150 L 148 150 Z M 148 72 " clip-rule="nonzero"/></clipPath><clipPath id="d05746a61e"><path d="M 154.964844 63 L 295.117188 76.050781 L 288.242188 149.859375 L 148.089844 136.804688 Z M 154.964844 63 " clip-rule="nonzero"/></clipPath><clipPath id="22d4b6c628"><path d="M 113.433594 59.128906 L 342.304688 80.449219 L 328.136719 232.53125 L 99.269531 211.214844 Z M 113.433594 59.128906 " clip-rule="nonzero"/></clipPath><clipPath id="59f0b6ae97"><path d="M 113.433594 59.128906 L 342.304688 80.449219 L 328.136719 232.53125 L 99.269531 211.214844 Z M 113.433594 59.128906 " clip-rule="nonzero"/></clipPath><clipPath id="5df98b0916"><path d="M 106 139 L 337 139 L 337 243 L 106 243 Z M 106 139 " clip-rule="nonzero"/></clipPath><clipPath id="871994fede"><path d="M 332.167969 242.214844 L 105.007812 227.792969 L 111.175781 130.652344 L 338.332031 145.074219 Z M 332.167969 242.214844 " clip-rule="nonzero"/></clipPath><clipPath id="78b9f96cca"><path d="M 330.964844 297.464844 L 101.566406 282.898438 L 111.242188 130.464844 L 340.640625 145.03125 Z M 330.964844 297.464844 " clip-rule="nonzero"/></clipPath><clipPath id="50cb8d1081"><path d="M 330.964844 297.464844 L 101.566406 282.898438 L 111.242188 130.464844 L 340.640625 145.03125 Z M 330.964844 297.464844 " clip-rule="nonzero"/></clipPath><clipPath id="ac8ac8dbf4"><path d="M 220.878906 202.675781 L 300 202.675781 L 300 282 L 220.878906 282 Z M 220.878906 202.675781 " clip-rule="nonzero"/></clipPath></defs><g clip-path="url(#669de2c488)"><path fill="#f0bb5f" d="M 441.746094 220.871094 C 441.746094 224.488281 441.65625 228.101562 441.480469 231.710938 C 441.300781 235.320312 441.035156 238.925781 440.683594 242.523438 C 440.328125 246.121094 439.886719 249.707031 439.355469 253.28125 C 438.824219 256.855469 438.207031 260.417969 437.5 263.964844 C 436.796875 267.507812 436.003906 271.035156 435.125 274.539062 C 434.25 278.046875 433.285156 281.53125 432.234375 284.988281 C 431.1875 288.449219 430.050781 291.878906 428.835938 295.28125 C 427.617188 298.6875 426.316406 302.058594 424.933594 305.398438 C 423.550781 308.738281 422.085938 312.039062 420.539062 315.308594 C 418.996094 318.574219 417.371094 321.804688 415.664062 324.992188 C 413.960938 328.179688 412.179688 331.324219 410.320312 334.425781 C 408.464844 337.523438 406.53125 340.578125 404.523438 343.582031 C 402.515625 346.589844 400.433594 349.542969 398.28125 352.445312 C 396.125 355.351562 393.902344 358.199219 391.609375 360.992188 C 389.316406 363.789062 386.957031 366.523438 384.527344 369.203125 C 382.101562 371.878906 379.609375 374.496094 377.054688 377.054688 C 374.496094 379.609375 371.878906 382.101562 369.203125 384.527344 C 366.523438 386.957031 363.789062 389.316406 360.992188 391.609375 C 358.199219 393.902344 355.351562 396.125 352.445312 398.28125 C 349.542969 400.433594 346.589844 402.515625 343.582031 404.523438 C 340.578125 406.53125 337.523438 408.464844 334.425781 410.320312 C 331.324219 412.179688 328.179688 413.960938 324.992188 415.664062 C 321.804688 417.371094 318.574219 418.996094 315.308594 420.539062 C 312.039062 422.085938 308.738281 423.550781 305.398438 424.933594 C 302.058594 426.316406 298.6875 427.617188 295.28125 428.835938 C 291.878906 430.050781 288.449219 431.1875 284.988281 432.234375 C 281.53125 433.285156 278.046875 434.25 274.539062 435.125 C 271.035156 436.003906 267.507812 436.796875 263.964844 437.5 C 260.417969 438.207031 256.855469 438.824219 253.28125 439.355469 C 249.707031 439.886719 246.121094 440.328125 242.523438 440.683594 C 238.925781 441.035156 235.320312 441.300781 231.710938 441.480469 C 228.101562 441.65625 224.488281 441.746094 220.871094 441.746094 C 217.257812 441.746094 213.644531 441.65625 210.035156 441.480469 C 206.425781 441.300781 202.820312 441.035156 199.222656 440.683594 C 195.625 440.328125 192.039062 439.886719 188.464844 439.355469 C 184.886719 438.824219 181.328125 438.207031 177.78125 437.5 C 174.238281 436.796875 170.710938 436.003906 167.207031 435.125 C 163.699219 434.25 160.214844 433.285156 156.757812 432.234375 C 153.296875 431.1875 149.867188 430.050781 146.464844 428.835938 C 143.058594 427.617188 139.6875 426.316406 136.347656 424.933594 C 133.007812 423.550781 129.707031 422.085938 126.4375 420.539062 C 123.167969 418.996094 119.941406 417.371094 116.753906 415.664062 C 113.566406 413.960938 110.421875 412.179688 107.320312 410.320312 C 104.222656 408.464844 101.167969 406.53125 98.164062 404.523438 C 95.15625 402.515625 92.203125 400.433594 89.300781 398.28125 C 86.394531 396.125 83.546875 393.902344 80.753906 391.609375 C 77.957031 389.316406 75.222656 386.957031 72.542969 384.527344 C 69.867188 382.101562 67.25 379.609375 64.691406 377.054688 C 62.136719 374.496094 59.644531 371.878906 57.21875 369.203125 C 54.789062 366.523438 52.429688 363.789062 50.136719 360.992188 C 47.84375 358.199219 45.621094 355.351562 43.464844 352.445312 C 41.3125 349.542969 39.230469 346.589844 37.222656 343.582031 C 35.214844 340.578125 33.28125 337.523438 31.425781 334.425781 C 29.566406 331.324219 27.785156 328.179688 26.082031 324.992188 C 24.375 321.804688 22.75 318.574219 21.207031 315.308594 C 19.660156 312.039062 18.195312 308.738281 16.8125 305.398438 C 15.429688 302.058594 14.128906 298.6875 12.910156 295.28125 C 11.695312 291.878906 10.558594 288.449219 9.511719 284.988281 C 8.460938 281.53125 7.496094 278.046875 6.621094 274.539062 C 5.742188 271.035156 4.949219 267.507812 4.242188 263.964844 C 3.539062 260.417969 2.921875 256.855469 2.390625 253.28125 C 1.859375 249.707031 1.417969 246.121094 1.0625 242.523438 C 0.710938 238.925781 0.445312 235.320312 0.265625 231.710938 C 0.0898438 228.101562 0 224.488281 0 220.871094 C 0 217.257812 0.0898438 213.644531 0.265625 210.035156 C 0.445312 206.425781 0.710938 202.820312 1.0625 199.222656 C 1.417969 195.625 1.859375 192.039062 2.390625 188.464844 C 2.921875 184.886719 3.539062 181.328125 4.242188 177.78125 C 4.949219 174.238281 5.742188 170.710938 6.621094 167.207031 C 7.496094 163.699219 8.460938 160.214844 9.511719 156.757812 C 10.558594 153.296875 11.695312 149.867188 12.910156 146.464844 C 14.128906 143.058594 15.429688 139.6875 16.8125 136.347656 C 18.195312 133.007812 19.660156 129.707031 21.207031 126.4375 C 22.75 123.167969 24.375 119.941406 26.082031 116.753906 C 27.785156 113.566406 29.566406 110.421875 31.425781 107.320312 C 33.28125 104.222656 35.214844 101.167969 37.222656 98.164062 C 39.230469 95.15625 41.3125 92.203125 43.464844 89.300781 C 45.621094 86.394531 47.84375 83.546875 50.136719 80.753906 C 52.429688 77.957031 54.789062 75.222656 57.21875 72.542969 C 59.644531 69.867188 62.136719 67.25 64.691406 64.691406 C 67.25 62.136719 69.867188 59.644531 72.542969 57.21875 C 75.222656 54.789062 77.957031 52.429688 80.753906 50.136719 C 83.546875 47.84375 86.394531 45.621094 89.300781 43.464844 C 92.203125 41.3125 95.15625 39.230469 98.164062 37.222656 C 101.167969 35.214844 104.222656 33.28125 107.320312 31.425781 C 110.421875 29.566406 113.566406 27.785156 116.753906 26.082031 C 119.941406 24.375 123.167969 22.75 126.4375 21.207031 C 129.707031 19.660156 133.007812 18.195312 136.347656 16.8125 C 139.6875 15.429688 143.058594 14.128906 146.464844 12.910156 C 149.867188 11.695312 153.296875 10.558594 156.757812 9.511719 C 160.214844 8.460938 163.699219 7.496094 167.207031 6.621094 C 170.710938 5.742188 174.238281 4.949219 177.78125 4.242188 C 181.328125 3.539062 184.886719 2.921875 188.464844 2.390625 C 192.039062 1.859375 195.625 1.417969 199.222656 1.0625 C 202.820312 0.710938 206.425781 0.445312 210.035156 0.265625 C 213.644531 0.0898438 217.257812 0 220.871094 0 C 224.488281 0 228.101562 0.0898438 231.710938 0.265625 C 235.320312 0.445312 238.925781 0.710938 242.523438 1.0625 C 246.121094 1.417969 249.707031 1.859375 253.28125 2.390625 C 256.855469 2.921875 260.417969 3.539062 263.964844 4.242188 C 267.507812 4.949219 271.035156 5.742188 274.539062 6.621094 C 278.046875 7.496094 281.53125 8.460938 284.988281 9.511719 C 288.449219 10.558594 291.878906 11.695312 295.28125 12.910156 C 298.6875 14.128906 302.058594 15.429688 305.398438 16.8125 C 308.738281 18.195312 312.039062 19.660156 315.308594 21.207031 C 318.574219 22.75 321.804688 24.375 324.992188 26.082031 C 328.179688 27.785156 331.324219 29.566406 334.425781 31.425781 C 337.523438 33.28125 340.578125 35.214844 343.582031 37.222656 C 346.589844 39.230469 349.542969 41.3125 352.445312 43.464844 C 355.351562 45.621094 358.199219 47.84375 360.992188 50.136719 C 363.789062 52.429688 366.523438 54.789062 369.203125 57.21875 C 371.878906 59.644531 374.496094 62.136719 377.054688 64.691406 C 379.609375 67.25 382.101562 69.867188 384.527344 72.542969 C 386.957031 75.222656 389.316406 77.957031 391.609375 80.753906 C 393.902344 83.546875 396.125 86.394531 398.28125 89.300781 C 400.433594 92.203125 402.515625 95.15625 404.523438 98.164062 C 406.53125 101.167969 408.464844 104.222656 410.320312 107.320312 C 412.179688 110.421875 413.960938 113.566406 415.664062 116.753906 C 417.371094 119.941406 418.996094 123.167969 420.539062 126.4375 C 422.085938 129.707031 423.550781 133.007812 424.933594 136.347656 C 426.316406 139.6875 427.617188 143.058594 428.835938 146.464844 C 430.050781 149.867188 431.1875 153.296875 432.234375 156.757812 C 433.285156 160.214844 434.25 163.699219 435.125 167.207031 C 436.003906 170.710938 436.796875 174.238281 437.5 177.78125 C 438.207031 181.328125 438.824219 184.886719 439.355469 188.464844 C 439.886719 192.039062 440.328125 195.625 440.683594 199.222656 C 441.035156 202.820312 441.300781 206.425781 441.480469 210.035156 C 441.65625 213.644531 441.746094 217.257812 441.746094 220.871094 Z M 441.746094 220.871094 " fill-opacity="1" fill-rule="nonzero"/></g><g clip-path="url(#2c472a6cb6)"><g clip-path="url(#d05746a61e)"><g clip-path="url(#22d4b6c628)"><g clip-path="url(#59f0b6ae97)"><path fill="#000000" d="M 217.15625 207.433594 C 230.429688 208.972656 244.714844 207.449219 258.613281 202.816406 C 278.082031 196.324219 294.003906 185.050781 304.953125 167.332031 C 308.332031 161.878906 310.78125 156.007812 312.644531 149.878906 C 313.222656 147.988281 312.902344 146.492188 311.203125 145.335938 C 310.085938 144.589844 308.949219 143.828125 307.992188 142.886719 C 306.128906 141.050781 305.753906 138.585938 306.84375 136.527344 C 308.035156 134.246094 310.621094 133.027344 313.214844 133.753906 C 314.867188 134.226562 316.441406 135.015625 318.023438 135.707031 C 321.910156 137.40625 325.796875 139.105469 329.636719 140.882812 C 331.03125 141.523438 332.414062 142.273438 333.597656 143.230469 C 335.351562 144.660156 336.113281 146.648438 335.621094 148.933594 C 335.074219 151.398438 333.53125 153.027344 331.074219 153.683594 C 330.339844 153.871094 329.550781 153.90625 328.785156 153.921875 C 324.914062 154.035156 324.867188 154.003906 323.589844 157.566406 C 315.179688 180.929688 299.324219 197.597656 277.460938 208.726562 C 261.355469 216.929688 244.171875 220.464844 226.140625 220.585938 C 201.714844 220.75 179.351562 213.941406 158.84375 201.015625 C 142.386719 190.65625 129.355469 176.882812 120.34375 159.476562 C 120.078125 158.964844 119.835938 158.433594 119.554688 157.921875 C 118.398438 155.933594 117.847656 155.722656 115.871094 156.546875 C 114.988281 156.914062 114.164062 157.457031 113.25 157.746094 C 110.667969 158.574219 108.261719 157.757812 106.597656 155.585938 C 104.949219 153.414062 104.894531 150.992188 106.464844 148.578125 C 107.539062 146.929688 109.054688 145.734375 110.605469 144.566406 C 114.601562 141.550781 118.601562 138.523438 122.65625 135.558594 C 123.890625 134.667969 125.226562 133.832031 126.632812 133.28125 C 129.160156 132.292969 131.773438 133.25 133.203125 135.449219 C 134.546875 137.503906 134.425781 139.851562 132.828125 141.914062 C 132.472656 142.363281 132.078125 142.8125 131.625 143.148438 C 127.570312 146.121094 128.824219 147.625 130.414062 151.0625 C 137.882812 167.109375 149.472656 179.546875 164.007812 189.269531 C 179.695312 199.742188 197.015625 205.773438 217.15625 207.433594 Z M 172.972656 94.554688 C 173.242188 91.703125 173.414062 89.59375 173.644531 87.488281 C 173.765625 86.335938 173.847656 85.164062 174.144531 84.0625 C 174.925781 81.039062 177.242188 79.175781 179.867188 79.300781 C 182.460938 79.421875 184.589844 81.511719 185.191406 84.558594 C 185.339844 85.300781 185.449219 86.085938 185.425781 86.851562 C 185.152344 97.828125 186.019531 108.828125 185.152344 119.796875 C 185.035156 121.34375 184.964844 122.890625 184.628906 124.390625 C 183.957031 127.472656 181.832031 129.339844 179.132812 129.464844 C 176.285156 129.613281 173.660156 127.617188 172.976562 124.421875 C 172.539062 122.363281 172.363281 120.210938 172.390625 118.101562 C 172.515625 110.011719 172.785156 101.921875 172.972656 94.554688 Z M 248.5625 83.074219 C 248.738281 81.195312 248.78125 79.453125 249.082031 77.742188 C 249.59375 74.875 251.484375 73.023438 253.957031 72.757812 C 256.585938 72.464844 259.066406 74.179688 260.03125 77.085938 C 260.402344 78.164062 260.632812 79.339844 260.648438 80.484375 C 260.757812 88.390625 260.820312 96.289062 260.847656 104.1875 C 260.859375 107.453125 260.722656 110.734375 260.734375 114.011719 C 260.726562 115.761719 260.675781 117.480469 260.027344 119.132812 C 258.855469 122.0625 256.601562 123.792969 254.003906 123.710938 C 251.382812 123.636719 249.195312 121.792969 248.378906 118.714844 C 248.039062 117.433594 247.886719 116.058594 247.914062 114.726562 C 248.089844 104.128906 248.339844 93.535156 248.5625 83.074219 Z M 248.5625 83.074219 " fill-opacity="1" fill-rule="nonzero"/></g></g></g></g><g clip-path="url(#5df98b0916)"><g clip-path="url(#871994fede)"><g clip-path="url(#78b9f96cca)"><g clip-path="url(#50cb8d1081)"><path fill="#000000" d="M 222.914062 152.28125 C 209.601562 151.132812 195.367188 153.078125 181.613281 158.117188 C 162.34375 165.183594 146.761719 176.917969 136.339844 194.953125 C 133.121094 200.503906 130.847656 206.441406 129.164062 212.625 C 128.644531 214.53125 129.007812 216.019531 130.738281 217.121094 C 131.875 217.835938 133.039062 218.566406 134.019531 219.476562 C 135.9375 221.257812 136.386719 223.710938 135.359375 225.800781 C 134.230469 228.117188 131.6875 229.410156 129.070312 228.757812 C 127.40625 228.335938 125.808594 227.59375 124.207031 226.945312 C 120.273438 225.363281 116.335938 223.78125 112.445312 222.117188 C 111.03125 221.519531 109.628906 220.808594 108.417969 219.886719 C 106.621094 218.511719 105.804688 216.546875 106.226562 214.246094 C 106.699219 211.765625 108.195312 210.09375 110.632812 209.363281 C 111.359375 209.15625 112.148438 209.097656 112.910156 209.058594 C 116.78125 208.832031 116.824219 208.859375 117.996094 205.261719 C 125.714844 181.664062 141.070312 164.535156 162.597656 152.765625 C 178.457031 144.089844 195.53125 140.050781 213.546875 139.402344 C 237.960938 138.515625 260.511719 144.660156 281.390625 156.976562 C 298.148438 166.851562 311.578125 180.230469 321.097656 197.363281 C 321.382812 197.867188 321.636719 198.390625 321.933594 198.894531 C 323.148438 200.851562 323.703125 201.042969 325.65625 200.164062 C 326.527344 199.769531 327.335938 199.203125 328.238281 198.882812 C 330.796875 197.980469 333.226562 198.726562 334.953125 200.847656 C 336.667969 202.96875 336.789062 205.390625 335.292969 207.851562 C 334.269531 209.53125 332.789062 210.769531 331.273438 211.980469 C 327.367188 215.113281 323.457031 218.257812 319.492188 221.339844 C 318.285156 222.269531 316.972656 223.144531 315.582031 223.734375 C 313.085938 224.796875 310.449219 223.914062 308.953125 221.761719 C 307.546875 219.746094 307.601562 217.398438 309.136719 215.289062 C 309.480469 214.828125 309.859375 214.367188 310.304688 214.019531 C 314.269531 210.925781 312.972656 209.460938 311.28125 206.070312 C 303.34375 190.25 291.390625 178.164062 276.578125 168.875 C 260.589844 158.867188 243.09375 153.34375 222.914062 152.28125 Z M 270.402344 263.808594 C 270.222656 266.667969 270.113281 268.78125 269.941406 270.890625 C 269.855469 272.050781 269.804688 273.222656 269.542969 274.332031 C 268.855469 277.378906 266.59375 279.304688 263.960938 279.261719 C 261.367188 279.21875 259.175781 277.1875 258.488281 274.164062 C 258.316406 273.425781 258.183594 272.640625 258.183594 271.878906 C 258.132812 260.894531 256.945312 249.925781 257.484375 238.933594 C 257.558594 237.390625 257.585938 235.839844 257.875 234.332031 C 258.457031 231.230469 260.527344 229.300781 263.222656 229.097656 C 266.0625 228.863281 268.742188 230.78125 269.519531 233.957031 C 270.019531 236 270.257812 238.144531 270.292969 240.257812 C 270.40625 248.347656 270.375 256.4375 270.402344 263.808594 Z M 195.1875 277.511719 C 195.066406 279.394531 195.078125 281.140625 194.824219 282.855469 C 194.398438 285.738281 192.5625 287.644531 190.101562 287.984375 C 187.480469 288.351562 184.949219 286.710938 183.898438 283.835938 C 183.496094 282.765625 183.234375 281.597656 183.183594 280.457031 C 182.839844 272.558594 182.542969 264.664062 182.285156 256.769531 C 182.175781 253.503906 182.214844 250.222656 182.109375 246.945312 C 182.0625 245.199219 182.066406 243.476562 182.667969 241.804688 C 183.75 238.84375 185.953125 237.046875 188.550781 237.054688 C 191.171875 237.050781 193.414062 238.828125 194.320312 241.878906 C 194.699219 243.152344 194.890625 244.519531 194.902344 245.855469 C 195.039062 256.453125 195.101562 267.046875 195.1875 277.511719 Z M 195.1875 277.511719 " fill-opacity="1" fill-rule="nonzero"/></g></g></g></g><g clip-path="url(#ac8ac8dbf4)"><path fill="#f0bb5f" d="M 299.960938 242.21875 C 299.960938 243.515625 299.898438 244.804688 299.769531 246.09375 C 299.644531 247.382812 299.453125 248.664062 299.203125 249.933594 C 298.949219 251.203125 298.632812 252.457031 298.257812 253.699219 C 297.882812 254.9375 297.445312 256.15625 296.949219 257.351562 C 296.457031 258.546875 295.902344 259.71875 295.292969 260.859375 C 294.679688 262 294.015625 263.109375 293.296875 264.1875 C 292.578125 265.265625 291.808594 266.304688 290.984375 267.304688 C 290.164062 268.304688 289.296875 269.265625 288.378906 270.179688 C 287.464844 271.09375 286.503906 271.964844 285.503906 272.785156 C 284.503906 273.605469 283.464844 274.378906 282.386719 275.097656 C 281.3125 275.816406 280.203125 276.480469 279.058594 277.09375 C 277.917969 277.703125 276.746094 278.253906 275.550781 278.75 C 274.355469 279.246094 273.136719 279.683594 271.898438 280.058594 C 270.660156 280.433594 269.402344 280.75 268.132812 281 C 266.863281 281.253906 265.582031 281.445312 264.296875 281.570312 C 263.007812 281.699219 261.714844 281.761719 260.417969 281.761719 C 259.125 281.761719 257.832031 281.699219 256.542969 281.570312 C 255.253906 281.445312 253.976562 281.253906 252.703125 281 C 251.433594 280.75 250.179688 280.433594 248.941406 280.058594 C 247.703125 279.683594 246.484375 279.246094 245.289062 278.75 C 244.089844 278.253906 242.921875 277.703125 241.78125 277.09375 C 240.636719 276.480469 239.527344 275.816406 238.449219 275.097656 C 237.375 274.378906 236.335938 273.605469 235.335938 272.785156 C 234.332031 271.964844 233.375 271.09375 232.457031 270.179688 C 231.542969 269.265625 230.675781 268.304688 229.851562 267.304688 C 229.03125 266.304688 228.261719 265.265625 227.542969 264.1875 C 226.820312 263.109375 226.15625 262 225.546875 260.859375 C 224.9375 259.71875 224.382812 258.546875 223.886719 257.351562 C 223.390625 256.15625 222.957031 254.9375 222.578125 253.699219 C 222.203125 252.457031 221.890625 251.203125 221.636719 249.933594 C 221.382812 248.664062 221.195312 247.382812 221.066406 246.09375 C 220.941406 244.804688 220.878906 243.515625 220.878906 242.21875 C 220.878906 240.925781 220.941406 239.632812 221.066406 238.34375 C 221.195312 237.054688 221.382812 235.773438 221.636719 234.503906 C 221.890625 233.234375 222.203125 231.980469 222.578125 230.742188 C 222.957031 229.5 223.390625 228.285156 223.886719 227.085938 C 224.382812 225.890625 224.9375 224.722656 225.546875 223.578125 C 226.15625 222.4375 226.820312 221.328125 227.542969 220.25 C 228.261719 219.175781 229.03125 218.136719 229.851562 217.132812 C 230.675781 216.132812 231.542969 215.175781 232.457031 214.257812 C 233.375 213.34375 234.332031 212.472656 235.335938 211.652344 C 236.335938 210.832031 237.375 210.0625 238.449219 209.339844 C 239.527344 208.621094 240.636719 207.957031 241.78125 207.347656 C 242.921875 206.734375 244.089844 206.183594 245.289062 205.6875 C 246.484375 205.191406 247.703125 204.757812 248.941406 204.378906 C 250.179688 204.003906 251.433594 203.691406 252.703125 203.4375 C 253.976562 203.183594 255.253906 202.996094 256.542969 202.867188 C 257.832031 202.742188 259.125 202.675781 260.417969 202.675781 C 261.714844 202.675781 263.007812 202.742188 264.296875 202.867188 C 265.582031 202.996094 266.863281 203.183594 268.132812 203.4375 C 269.402344 203.691406 270.660156 204.003906 271.898438 204.378906 C 273.136719 204.757812 274.355469 205.191406 275.550781 205.6875 C 276.746094 206.183594 277.917969 206.734375 279.058594 207.347656 C 280.203125 207.957031 281.3125 208.621094 282.386719 209.339844 C 283.464844 210.0625 284.503906 210.832031 285.503906 211.652344 C 286.503906 212.472656 287.464844 213.34375 288.378906 214.257812 C 289.296875 215.175781 290.164062 216.132812 290.984375 217.132812 C 291.808594 218.136719 292.578125 219.175781 293.296875 220.25 C 294.015625 221.328125 294.679688 222.4375 295.292969 223.578125 C 295.902344 224.722656 296.457031 225.890625 296.949219 227.085938 C 297.445312 228.285156 297.882812 229.5 298.257812 230.742188 C 298.632812 231.980469 298.949219 233.234375 299.203125 234.503906 C 299.453125 235.773438 299.644531 237.054688 299.769531 238.34375 C 299.898438 239.632812 299.960938 240.925781 299.960938 242.21875 Z M 299.960938 242.21875 " fill-opacity="1" fill-rule="nonzero"/></g></svg>