<svg xmlns="http://www.w3.org/2000/svg" xmlns:xlink="http://www.w3.org/1999/xlink" width="308" zoomAndPan="magnify" viewBox="0 0 230.87999 212.249992" height="283" preserveAspectRatio="xMidYMid meet" version="1.0">
<defs>
<clipPath id="86f353eccb">
<path d="M 0.347656 0 L 230.414062 0 L 230.414062 211.503906 L 0.347656 211.503906 Z M 0.347656 0 " clip-rule="nonzero"/>
</clipPath>
<clipPath id="f4a8a18502">
<path d="M 87 47 L 229.785156 47 L 229.785156 211 L 87 211 Z M 87 47 " clip-rule="nonzero"/>
</clipPath>
</defs>
<g clip-path="url(#f4a8a18502)"><path fill="#ffffff" d="M 229.359375 206.296875 L 214.699219 163.328125 C 215.433594 162.039062 216.128906 160.730469 216.789062 159.402344 C 217.449219 158.074219 218.070312 156.726562 218.652344 155.363281 C 219.238281 154 219.785156 152.621094 220.292969 151.230469 C 220.800781 149.835938 221.265625 148.429688 221.695312 147.007812 C 222.125 145.589844 222.515625 144.15625 222.863281 142.714844 C 223.210938 141.273438 223.519531 139.824219 223.789062 138.363281 C 224.054688 136.90625 224.285156 135.4375 224.46875 133.96875 C 224.65625 132.496094 224.800781 131.019531 224.902344 129.539062 C 225.007812 128.058594 225.070312 126.578125 225.089844 125.09375 C 225.113281 123.609375 225.089844 122.128906 225.027344 120.644531 C 224.96875 119.164062 224.863281 117.683594 224.71875 116.207031 C 224.574219 114.730469 224.390625 113.261719 224.164062 111.792969 C 223.933594 110.328125 223.667969 108.871094 223.359375 107.417969 C 223.050781 105.96875 222.703125 104.527344 222.3125 103.09375 C 221.925781 101.664062 221.496094 100.242188 221.027344 98.835938 C 220.5625 97.429688 220.054688 96.035156 219.507812 94.65625 C 218.960938 93.277344 218.378906 91.914062 217.757812 90.566406 C 217.136719 89.222656 216.476562 87.894531 215.78125 86.582031 C 215.082031 85.273438 214.351562 83.984375 213.582031 82.71875 C 212.816406 81.449219 212.011719 80.203125 211.175781 78.980469 C 210.335938 77.757812 209.464844 76.558594 208.5625 75.382812 C 207.65625 74.207031 206.71875 73.058594 205.75 71.9375 C 204.78125 70.816406 203.78125 69.722656 202.753906 68.65625 C 201.722656 67.589844 200.664062 66.554688 199.578125 65.546875 C 198.488281 64.542969 197.375 63.566406 196.230469 62.621094 C 195.089844 61.679688 193.921875 60.765625 192.730469 59.886719 C 191.535156 59.011719 190.320312 58.164062 189.078125 57.355469 C 187.839844 56.542969 186.578125 55.769531 185.292969 55.03125 C 184.007812 54.289062 182.707031 53.589844 181.382812 52.921875 C 180.058594 52.253906 178.71875 51.625 177.363281 51.035156 C 176.003906 50.445312 174.628906 49.890625 173.242188 49.375 C 171.851562 48.863281 170.449219 48.386719 169.035156 47.953125 C 169.816406 49.671875 170.546875 51.417969 171.21875 53.183594 C 171.894531 54.953125 172.515625 56.738281 173.078125 58.542969 C 173.644531 60.347656 174.152344 62.167969 174.605469 64.003906 C 175.058594 65.839844 175.453125 67.691406 175.792969 69.550781 C 176.132812 71.410156 176.414062 73.28125 176.636719 75.160156 C 176.859375 77.039062 177.027344 78.921875 177.136719 80.808594 C 177.242188 82.699219 177.292969 84.589844 177.285156 86.480469 C 177.277344 88.371094 177.210938 90.261719 177.085938 92.148438 C 176.964844 94.035156 176.78125 95.917969 176.542969 97.792969 C 176.300781 99.671875 176.003906 101.539062 175.648438 103.394531 C 175.292969 105.253906 174.882812 107.097656 174.414062 108.929688 C 173.945312 110.765625 173.421875 112.582031 172.84375 114.378906 C 172.261719 116.179688 171.628906 117.960938 170.9375 119.722656 C 170.25 121.484375 169.507812 123.222656 168.710938 124.9375 C 167.914062 126.652344 167.066406 128.339844 166.164062 130.003906 C 165.265625 131.667969 164.316406 133.300781 163.316406 134.902344 C 162.3125 136.507812 161.265625 138.078125 160.167969 139.617188 C 159.070312 141.160156 157.925781 142.664062 156.738281 144.132812 C 155.546875 145.601562 154.3125 147.03125 153.035156 148.421875 C 151.757812 149.816406 150.441406 151.167969 149.078125 152.480469 C 147.71875 153.789062 146.316406 155.058594 144.878906 156.28125 C 143.441406 157.507812 141.964844 158.6875 140.453125 159.820312 C 138.941406 160.953125 137.398438 162.039062 135.820312 163.078125 C 134.242188 164.117188 132.632812 165.105469 130.996094 166.042969 C 129.355469 166.984375 127.691406 167.871094 125.996094 168.707031 C 124.304688 169.542969 122.585938 170.324219 120.84375 171.054688 C 119.101562 171.785156 117.339844 172.460938 115.554688 173.082031 C 113.773438 173.703125 111.972656 174.269531 110.15625 174.78125 C 108.335938 175.289062 106.503906 175.742188 104.660156 176.140625 C 102.8125 176.539062 100.957031 176.875 99.089844 177.160156 C 97.222656 177.441406 95.351562 177.667969 93.46875 177.832031 C 91.589844 178 89.703125 178.109375 87.816406 178.160156 C 89.308594 179.753906 90.859375 181.289062 92.476562 182.753906 C 94.09375 184.222656 95.765625 185.621094 97.5 186.953125 C 99.230469 188.28125 101.011719 189.539062 102.847656 190.722656 C 104.683594 191.902344 106.5625 193.007812 108.488281 194.035156 C 110.414062 195.0625 112.378906 196.007812 114.382812 196.875 C 116.386719 197.738281 118.421875 198.519531 120.488281 199.214844 C 122.554688 199.914062 124.648438 200.523438 126.765625 201.046875 C 128.882812 201.570312 131.019531 202.007812 133.175781 202.355469 C 135.328125 202.703125 137.492188 202.960938 139.667969 203.128906 C 141.84375 203.296875 144.019531 203.375 146.203125 203.363281 C 148.382812 203.351562 150.5625 203.25 152.734375 203.058594 C 154.90625 202.867188 157.070312 202.585938 159.21875 202.21875 C 161.367188 201.847656 163.5 201.390625 165.613281 200.84375 C 167.726562 200.296875 169.8125 199.664062 171.871094 198.945312 C 173.929688 198.230469 175.957031 197.425781 177.953125 196.539062 C 179.949219 195.65625 181.902344 194.6875 183.816406 193.640625 L 225.601562 209.917969 C 226.125 210.113281 226.65625 210.160156 227.203125 210.046875 C 227.75 209.933594 228.222656 209.683594 228.625 209.296875 C 229.027344 208.910156 229.292969 208.445312 229.425781 207.902344 C 229.558594 207.359375 229.539062 206.824219 229.359375 206.296875 Z M 229.359375 206.296875 " fill-opacity="1" fill-rule="nonzero"/></g><path fill="#ffffff" d="M 164.609375 86.015625 C 164.601562 84.496094 164.554688 82.976562 164.460938 81.457031 C 164.367188 79.941406 164.230469 78.425781 164.050781 76.917969 C 163.871094 75.40625 163.648438 73.902344 163.382812 72.40625 C 163.117188 70.90625 162.808594 69.417969 162.457031 67.9375 C 162.105469 66.460938 161.710938 64.992188 161.273438 63.535156 C 160.839844 62.078125 160.363281 60.636719 159.84375 59.207031 C 159.324219 57.777344 158.765625 56.363281 158.164062 54.964844 C 157.566406 53.570312 156.925781 52.191406 156.246094 50.828125 C 155.566406 49.46875 154.851562 48.128906 154.09375 46.8125 C 153.339844 45.492188 152.546875 44.195312 151.714844 42.921875 C 150.886719 41.648438 150.019531 40.402344 149.117188 39.175781 C 148.214844 37.953125 147.28125 36.757812 146.308594 35.589844 C 145.339844 34.417969 144.335938 33.277344 143.300781 32.167969 C 142.265625 31.054688 141.199219 29.972656 140.097656 28.921875 C 139 27.875 137.875 26.855469 136.71875 25.871094 C 135.5625 24.886719 134.378906 23.933594 133.167969 23.015625 C 131.957031 22.101562 130.71875 21.21875 129.457031 20.375 C 128.195312 19.527344 126.910156 18.71875 125.605469 17.945312 C 124.296875 17.175781 122.96875 16.441406 121.617188 15.746094 C 120.265625 15.050781 118.898438 14.394531 117.511719 13.78125 C 116.121094 13.164062 114.71875 12.585938 113.296875 12.050781 C 111.878906 11.515625 110.441406 11.023438 108.992188 10.570312 C 107.542969 10.117188 106.082031 9.707031 104.609375 9.339844 C 103.136719 8.96875 101.65625 8.644531 100.164062 8.359375 C 98.671875 8.078125 97.175781 7.835938 95.667969 7.640625 C 94.164062 7.445312 92.65625 7.289062 91.140625 7.179688 C 89.628906 7.070312 88.113281 7.003906 86.59375 6.980469 C 85.074219 6.960938 83.558594 6.980469 82.042969 7.046875 C 80.527344 7.109375 79.011719 7.21875 77.503906 7.371094 C 75.992188 7.523438 74.488281 7.71875 72.988281 7.957031 C 71.488281 8.195312 70 8.476562 68.515625 8.804688 C 67.03125 9.128906 65.558594 9.496094 64.097656 9.90625 C 62.636719 10.3125 61.1875 10.765625 59.75 11.257812 C 58.316406 11.75 56.894531 12.285156 55.488281 12.859375 C 54.085938 13.433594 52.695312 14.050781 51.328125 14.703125 C 49.957031 15.359375 48.605469 16.054688 47.277344 16.785156 C 45.945312 17.519531 44.636719 18.289062 43.351562 19.097656 C 42.066406 19.90625 40.804688 20.75 39.566406 21.628906 C 38.328125 22.511719 37.117188 23.425781 35.933594 24.378906 C 34.75 25.328125 33.59375 26.3125 32.464844 27.328125 C 31.335938 28.34375 30.238281 29.394531 29.167969 30.476562 C 28.101562 31.554688 27.0625 32.664062 26.058594 33.804688 C 25.054688 34.945312 24.082031 36.113281 23.144531 37.308594 C 22.207031 38.507812 21.304688 39.726562 20.4375 40.976562 C 19.570312 42.226562 18.742188 43.496094 17.945312 44.792969 C 17.152344 46.089844 16.394531 47.40625 15.675781 48.746094 C 14.957031 50.085938 14.277344 51.445312 13.636719 52.824219 C 12.996094 54.203125 12.394531 55.597656 11.835938 57.011719 C 11.273438 58.425781 10.753906 59.855469 10.277344 61.296875 C 9.796875 62.738281 9.359375 64.195312 8.964844 65.664062 C 8.570312 67.132812 8.21875 68.613281 7.90625 70.101562 C 7.597656 71.589844 7.328125 73.085938 7.105469 74.589844 C 6.882812 76.09375 6.699219 77.605469 6.5625 79.117188 C 6.425781 80.632812 6.332031 82.148438 6.28125 83.671875 C 6.230469 85.191406 6.222656 86.710938 6.257812 88.230469 C 6.296875 89.75 6.375 91.269531 6.5 92.785156 C 6.621094 94.300781 6.789062 95.8125 7 97.320312 C 7.210938 98.824219 7.464844 100.324219 7.761719 101.816406 C 8.058594 103.308594 8.394531 104.789062 8.777344 106.261719 C 9.160156 107.734375 9.582031 109.191406 10.046875 110.640625 C 10.511719 112.089844 11.019531 113.519531 11.566406 114.941406 C 12.113281 116.359375 12.703125 117.761719 13.332031 119.144531 C 13.957031 120.527344 14.625 121.894531 15.332031 123.242188 C 16.039062 124.585938 16.78125 125.910156 17.566406 127.214844 L 12.507812 142.066406 L 4.386719 165.953125 C 4.210938 166.480469 4.1875 167.015625 4.320312 167.558594 C 4.453125 168.101562 4.71875 168.566406 5.121094 168.953125 C 5.523438 169.339844 5.996094 169.589844 6.542969 169.703125 C 7.089844 169.816406 7.621094 169.769531 8.144531 169.574219 L 31.390625 160.519531 L 45.789062 154.90625 C 50.734375 157.765625 55.929688 160.066406 61.375 161.800781 C 66.816406 163.539062 72.382812 164.671875 78.070312 165.199219 C 80.488281 165.402344 82.945312 165.523438 85.421875 165.523438 C 86.71875 165.523438 88.015625 165.492188 89.3125 165.429688 C 90.609375 165.363281 91.902344 165.269531 93.195312 165.140625 C 94.484375 165.015625 95.773438 164.855469 97.054688 164.664062 C 98.339844 164.472656 99.617188 164.25 100.890625 163.996094 C 102.164062 163.742188 103.429688 163.457031 104.6875 163.140625 C 105.945312 162.824219 107.195312 162.476562 108.4375 162.097656 C 109.679688 161.722656 110.910156 161.3125 112.132812 160.875 C 113.355469 160.4375 114.5625 159.96875 115.761719 159.46875 C 116.960938 158.972656 118.148438 158.445312 119.320312 157.886719 C 120.492188 157.332031 121.652344 156.746094 122.796875 156.132812 C 123.9375 155.519531 125.066406 154.875 126.179688 154.207031 C 127.292969 153.539062 128.386719 152.839844 129.464844 152.117188 C 130.546875 151.394531 131.605469 150.644531 132.648438 149.871094 C 133.6875 149.09375 134.710938 148.292969 135.710938 147.46875 C 136.714844 146.644531 137.695312 145.792969 138.65625 144.917969 C 139.617188 144.046875 140.554688 143.148438 141.472656 142.226562 C 142.390625 141.308594 143.285156 140.363281 144.152344 139.398438 C 145.023438 138.4375 145.871094 137.449219 146.691406 136.445312 C 147.515625 135.4375 148.3125 134.414062 149.082031 133.367188 C 149.855469 132.324219 150.601562 131.257812 151.320312 130.175781 C 152.039062 129.09375 152.730469 127.996094 153.398438 126.878906 C 154.0625 125.761719 154.703125 124.632812 155.3125 123.484375 C 155.921875 122.335938 156.503906 121.175781 157.054688 120 C 157.609375 118.820312 158.132812 117.632812 158.628906 116.429688 C 159.121094 115.230469 159.585938 114.015625 160.023438 112.789062 C 160.457031 111.566406 160.863281 110.332031 161.238281 109.085938 C 161.613281 107.839844 161.957031 106.585938 162.269531 105.324219 C 162.582031 104.0625 162.863281 102.796875 163.113281 101.519531 C 163.367188 100.242188 163.585938 98.960938 163.773438 97.675781 C 163.960938 96.390625 164.117188 95.097656 164.242188 93.804688 C 164.367188 92.511719 164.460938 91.214844 164.519531 89.914062 C 164.582031 88.617188 164.613281 87.316406 164.609375 86.015625 Z M 95.371094 104.328125 C 95.371094 104.742188 95.332031 105.152344 95.25 105.558594 C 95.167969 105.964844 95.050781 106.359375 94.890625 106.742188 C 94.734375 107.125 94.539062 107.488281 94.308594 107.832031 C 94.082031 108.175781 93.820312 108.492188 93.527344 108.785156 C 93.234375 109.078125 92.917969 109.339844 92.574219 109.570312 C 92.230469 109.800781 91.867188 109.996094 91.484375 110.152344 C 91.105469 110.3125 90.710938 110.433594 90.304688 110.511719 C 89.898438 110.59375 89.488281 110.632812 89.078125 110.632812 L 48.976562 110.632812 C 48.566406 110.628906 48.164062 110.582031 47.761719 110.496094 C 47.363281 110.410156 46.972656 110.285156 46.597656 110.125 C 46.222656 109.964844 45.863281 109.765625 45.527344 109.535156 C 45.191406 109.304688 44.878906 109.042969 44.589844 108.75 C 44.304688 108.460938 44.046875 108.140625 43.820312 107.800781 C 43.597656 107.457031 43.40625 107.097656 43.253906 106.71875 C 43.097656 106.339844 42.980469 105.949219 42.902344 105.546875 C 42.820312 105.144531 42.78125 104.738281 42.78125 104.328125 L 42.78125 103.71875 C 42.78125 103.304688 42.824219 102.894531 42.902344 102.488281 C 42.984375 102.082031 43.105469 101.6875 43.261719 101.304688 C 43.421875 100.925781 43.613281 100.5625 43.84375 100.21875 C 44.074219 99.875 44.335938 99.554688 44.628906 99.265625 C 44.921875 98.972656 45.238281 98.710938 45.582031 98.484375 C 45.925781 98.253906 46.289062 98.058594 46.671875 97.902344 C 47.050781 97.746094 47.445312 97.628906 47.851562 97.546875 C 48.253906 97.46875 48.664062 97.429688 49.078125 97.429688 L 89.078125 97.429688 C 89.488281 97.429688 89.898438 97.46875 90.304688 97.546875 C 90.707031 97.628906 91.101562 97.746094 91.484375 97.902344 C 91.867188 98.058594 92.226562 98.253906 92.570312 98.484375 C 92.914062 98.710938 93.234375 98.972656 93.527344 99.265625 C 93.820312 99.554688 94.078125 99.875 94.308594 100.21875 C 94.539062 100.5625 94.734375 100.925781 94.890625 101.304688 C 95.050781 101.6875 95.167969 102.082031 95.25 102.488281 C 95.332031 102.894531 95.371094 103.304688 95.371094 103.71875 Z M 125.664062 76.597656 C 125.664062 77.011719 125.625 77.421875 125.542969 77.828125 C 125.464844 78.234375 125.34375 78.628906 125.1875 79.011719 C 125.027344 79.394531 124.835938 79.757812 124.605469 80.101562 C 124.375 80.445312 124.113281 80.765625 123.820312 81.058594 C 123.53125 81.351562 123.210938 81.609375 122.867188 81.839844 C 122.523438 82.070312 122.160156 82.265625 121.78125 82.425781 C 121.398438 82.582031 121.003906 82.703125 120.597656 82.78125 C 120.195312 82.863281 119.785156 82.902344 119.371094 82.902344 L 47.65625 82.902344 C 47.242188 82.902344 46.832031 82.863281 46.429688 82.78125 C 46.023438 82.703125 45.628906 82.582031 45.246094 82.425781 C 44.867188 82.265625 44.503906 82.070312 44.160156 81.839844 C 43.816406 81.609375 43.496094 81.351562 43.203125 81.058594 C 42.914062 80.765625 42.652344 80.445312 42.421875 80.101562 C 42.191406 79.757812 42 79.394531 41.839844 79.011719 C 41.683594 78.628906 41.5625 78.234375 41.484375 77.828125 C 41.402344 77.421875 41.363281 77.011719 41.363281 76.597656 L 41.363281 76.007812 C 41.363281 75.59375 41.40625 75.1875 41.488281 74.78125 C 41.570312 74.378906 41.691406 73.988281 41.851562 73.605469 C 42.011719 73.226562 42.207031 72.863281 42.4375 72.523438 C 42.667969 72.179688 42.925781 71.863281 43.21875 71.574219 C 43.511719 71.28125 43.828125 71.023438 44.171875 70.796875 C 44.515625 70.566406 44.875 70.375 45.257812 70.21875 C 45.636719 70.058594 46.027344 69.941406 46.433594 69.859375 C 46.835938 69.78125 47.246094 69.742188 47.65625 69.742188 L 119.371094 69.742188 C 119.785156 69.742188 120.195312 69.78125 120.597656 69.863281 C 121.003906 69.941406 121.398438 70.0625 121.78125 70.222656 C 122.160156 70.378906 122.523438 70.574219 122.867188 70.804688 C 123.210938 71.035156 123.53125 71.296875 123.820312 71.589844 C 124.113281 71.882812 124.375 72.199219 124.605469 72.542969 C 124.835938 72.886719 125.027344 73.25 125.1875 73.632812 C 125.34375 74.015625 125.464844 74.410156 125.542969 74.816406 C 125.625 75.222656 125.664062 75.632812 125.664062 76.046875 Z M 125.664062 76.597656 " fill-opacity="1" fill-rule="nonzero"/></svg>