<svg xmlns="http://www.w3.org/2000/svg" xmlns:xlink="http://www.w3.org/1999/xlink" width="296" zoomAndPan="magnify" viewBox="0 0 222 101.249998" height="135" preserveAspectRatio="xMidYMid meet" version="1.0"><defs><clipPath id="1f8a10cc6a"><path d="M 3 7 L 217.800781 7 L 217.800781 88.65625 L 3 88.65625 Z M 3 7 " clip-rule="nonzero"/></clipPath><clipPath id="8870f24f35"><path d="M 241.21875 56.0625 L 110.371094 186.910156 L -20.476562 56.0625 L 110.371094 -74.785156 Z M 241.21875 56.0625 " clip-rule="nonzero"/></clipPath><clipPath id="5262117133"><path d="M 241.21875 56.0625 L 110.371094 186.910156 L -20.476562 56.0625 L 110.371094 -74.785156 Z M 241.21875 56.0625 " clip-rule="nonzero"/></clipPath><clipPath id="0558abaaee"><path d="M 82.472656 7 L 217.800781 7 L 217.800781 88.65625 L 82.472656 88.65625 Z M 82.472656 7 " clip-rule="nonzero"/></clipPath><clipPath id="438043daf5"><path d="M 241.21875 56.0625 L 110.371094 186.910156 L -20.476562 56.0625 L 110.371094 -74.785156 Z M 241.21875 56.0625 " clip-rule="nonzero"/></clipPath><clipPath id="c213359fd8"><path d="M 241.21875 56.0625 L 110.371094 186.910156 L -20.476562 56.0625 L 110.371094 -74.785156 Z M 241.21875 56.0625 " clip-rule="nonzero"/></clipPath></defs><g clip-path="url(#1f8a10cc6a)"><g clip-path="url(#8870f24f35)"><g clip-path="url(#5262117133)"><path fill="#fff" d="M 18.691406 88.519531 C 22.175781 88.714844 31.835938 88.230469 38.207031 87.339844 C 44.578125 86.5625 54.199219 84.523438 57.644531 83.425781 C 63.289062 81.644531 68.671875 75.835938 69.808594 70.019531 C 70.449219 66.496094 71.050781 61.730469 70.917969 55.335938 C 70.914062 55.300781 70.914062 55.261719 70.914062 55.226562 C 70.769531 49.671875 74.648438 44.832031 80.105469 43.78125 C 89.617188 41.949219 99.867188 40.976562 110.316406 40.976562 C 120.761719 40.976562 131.015625 41.949219 140.523438 43.78125 C 145.984375 44.832031 149.859375 49.671875 149.714844 55.226562 C 149.710938 55.265625 149.710938 55.300781 149.710938 55.335938 C 149.574219 61.734375 150.179688 66.496094 150.820312 70.019531 C 151.957031 75.835938 157.339844 81.644531 162.984375 83.425781 C 166.433594 84.523438 176.050781 86.5625 182.421875 87.339844 C 188.792969 88.230469 198.453125 88.714844 201.941406 88.519531 C 207.660156 88.222656 213.445312 83.851562 215.054688 78.378906 C 215.984375 75.046875 216.988281 70.476562 217.398438 64.089844 C 217.402344 63.921875 217.414062 63.75 217.421875 63.582031 C 219.613281 34.441406 171.695312 7.148438 110.320312 7.195312 C 48.9375 7.148438 1.023438 34.441406 3.210938 63.585938 C 3.21875 63.753906 3.226562 63.925781 3.234375 64.09375 C 3.648438 70.480469 4.648438 75.050781 5.574219 78.378906 C 7.1875 83.855469 12.976562 88.226562 18.691406 88.519531 Z M 18.691406 88.519531 " fill-opacity="1" fill-rule="nonzero"/></g></g></g><g clip-path="url(#0558abaaee)"><g clip-path="url(#438043daf5)"><g clip-path="url(#c213359fd8)"><path fill="#fff" d="M 110.320312 40.976562 C 120.765625 40.972656 131.015625 41.949219 140.527344 43.777344 C 145.984375 44.828125 149.863281 49.667969 149.71875 55.222656 C 149.714844 55.261719 149.714844 55.300781 149.714844 55.332031 C 149.578125 61.730469 150.183594 66.492188 150.820312 70.015625 C 151.960938 75.832031 157.339844 81.644531 162.984375 83.421875 C 166.433594 84.523438 176.054688 86.5625 182.425781 87.335938 C 188.792969 88.230469 198.457031 88.710938 201.945312 88.519531 C 207.660156 88.222656 213.445312 83.851562 215.054688 78.378906 C 215.984375 75.046875 216.988281 70.476562 217.398438 64.089844 C 217.402344 63.921875 217.414062 63.75 217.421875 63.582031 C 219.613281 34.441406 171.695312 7.148438 110.320312 7.195312 C 106.515625 7.195312 102.761719 7.296875 99.070312 7.496094 C 90.996094 18.367188 85.582031 30.59375 82.832031 43.285156 C 91.566406 41.777344 100.859375 40.976562 110.316406 40.976562 Z M 110.320312 40.976562 " fill-opacity="1" fill-rule="nonzero"/></g></g></g></svg>