<svg xmlns="http://www.w3.org/2000/svg" xmlns:xlink="http://www.w3.org/1999/xlink" width="193" zoomAndPan="magnify" viewBox="0 0 144.75 225" height="300" preserveAspectRatio="xMidYMid meet" version="1.0"><defs><clipPath id="aa2e86ad8a"><path d="M 0 1 L 144.5 1 L 144.5 224.804688 L 0 224.804688 Z M 0 1 " clip-rule="nonzero"/></clipPath></defs><g clip-path="url(#aa2e86ad8a)"><path fill="#ffffff" d="M 141.070312 157.910156 L 76.152344 112.898438 L 141.070312 67.886719 C 143.21875 66.398438 144.5 63.953125 144.5 61.339844 C 144.5 58.722656 143.21875 56.277344 141.070312 54.789062 L 65.933594 2.699219 C 63.488281 1.011719 60.304688 0.816406 57.679688 2.1875 C 55.046875 3.554688 53.394531 6.28125 53.394531 9.25 L 53.394531 91.25 L 14.773438 47.480469 C 11.855469 44.167969 6.808594 43.84375 3.503906 46.769531 C 0.195312 49.683594 -0.121094 54.71875 2.789062 58.019531 L 50.78125 112.40625 L 2.746094 167.832031 C -0.140625 171.15625 0.222656 176.191406 3.558594 179.074219 C 5.066406 180.382812 6.925781 181.019531 8.777344 181.019531 C 11.015625 181.019531 13.242188 180.085938 14.816406 178.265625 L 53.394531 133.75 L 53.394531 216.550781 C 53.394531 219.515625 55.046875 222.242188 57.679688 223.609375 C 58.84375 224.21875 60.113281 224.523438 61.378906 224.523438 C 62.976562 224.523438 64.570312 224.039062 65.933594 223.097656 L 141.070312 171.007812 C 143.21875 169.519531 144.5 167.074219 144.5 164.460938 C 144.5 161.84375 143.21875 159.398438 141.070312 157.910156 Z M 69.363281 24.484375 L 122.519531 61.339844 L 69.363281 98.191406 Z M 69.363281 201.3125 L 69.363281 127.605469 L 122.519531 164.460938 Z M 69.363281 201.3125 " fill-opacity="1" fill-rule="nonzero"/></g></svg>