<svg xmlns="http://www.w3.org/2000/svg" xmlns:xlink="http://www.w3.org/1999/xlink" width="308" zoomAndPan="magnify" viewBox="0 0 230.87999 231" height="308" preserveAspectRatio="xMidYMid meet" version="1.0"><defs><clipPath id="28dd3a3c61"><path d="M 0 0.0585938 L 230.761719 0.0585938 L 230.761719 230.9375 L 0 230.9375 Z M 0 0.0585938 " clip-rule="nonzero"/></clipPath><clipPath id="831993ba3b"><path d="M 115.140625 61 L 170 61 L 170 115.5 L 115.140625 115.5 Z M 115.140625 61 " clip-rule="nonzero"/></clipPath><clipPath id="9024581981"><path d="M 115.140625 30 L 200 30 L 200 115.5 L 115.140625 115.5 Z M 115.140625 30 " clip-rule="nonzero"/></clipPath><clipPath id="c00b334aea"><path d="M 115.140625 0.0585938 L 230.582031 0.0585938 L 230.582031 115.5 L 115.140625 115.5 Z M 115.140625 0.0585938 " clip-rule="nonzero"/></clipPath></defs><g clip-path="url(#28dd3a3c61)"><path fill="#ffffff" d="M 0 0.0585938 L 230.878906 0.0585938 L 230.878906 230.941406 L 0 230.941406 Z M 0 0.0585938 " fill-opacity="1" fill-rule="nonzero"/></g><path fill="#000000" d="M 224.230469 167.210938 C 221.335938 163.972656 212.417969 155.898438 206.027344 151.085938 C 199.746094 146.164062 189.492188 139.496094 185.496094 137.433594 C 178.964844 134.035156 169.121094 134.410156 163.007812 138.523438 C 159.347656 141.058594 154.628906 144.722656 149.121094 150.464844 C 149.089844 150.496094 149.058594 150.53125 149.027344 150.558594 C 144.269531 155.574219 136.605469 156.417969 130.878906 152.542969 C 120.90625 145.789062 111.035156 137.632812 101.851562 128.445312 C 92.660156 119.257812 84.503906 109.386719 77.75 99.414062 C 73.871094 93.691406 74.71875 86.023438 79.734375 81.265625 C 79.765625 81.234375 79.800781 81.203125 79.828125 81.171875 C 85.578125 75.664062 89.234375 70.945312 91.769531 67.285156 C 95.882812 61.171875 96.257812 51.328125 92.859375 44.796875 C 90.796875 40.800781 84.128906 30.546875 79.207031 24.265625 C 74.394531 17.875 66.320312 8.957031 63.085938 6.0625 C 57.792969 1.292969 48.863281 0.0507812 42.632812 3.445312 C 38.886719 5.558594 33.984375 8.699219 28.007812 13.953125 C 27.855469 14.09375 27.695312 14.234375 27.539062 14.378906 C -0.0117188 38.078125 18.125 104.210938 72.140625 158.148438 C 126.078125 212.164062 192.210938 230.300781 215.914062 202.75 C 216.058594 202.59375 216.199219 202.433594 216.34375 202.28125 C 221.589844 196.300781 224.734375 191.402344 226.847656 187.65625 C 230.242188 181.421875 228.996094 172.492188 224.230469 167.210938 Z M 224.230469 167.210938 " fill-opacity="1" fill-rule="nonzero"/><path fill="#000000" d="M 101.847656 128.445312 C 92.65625 119.257812 84.5 109.386719 77.746094 99.414062 C 73.867188 93.691406 74.714844 86.023438 79.730469 81.265625 C 79.761719 81.234375 79.796875 81.203125 79.824219 81.171875 C 85.570312 75.664062 89.230469 70.945312 91.765625 67.285156 C 95.878906 61.171875 96.253906 51.328125 92.855469 44.796875 C 90.792969 40.800781 84.125 30.546875 79.203125 24.265625 C 74.390625 17.875 66.316406 8.957031 63.078125 6.0625 C 57.792969 1.292969 48.863281 0.0507812 42.632812 3.445312 C 38.886719 5.558594 33.984375 8.699219 28.007812 13.953125 C 27.855469 14.09375 27.695312 14.234375 27.539062 14.378906 C -0.0117188 38.078125 18.125 104.210938 72.140625 158.148438 C 75.484375 161.496094 78.871094 164.707031 82.296875 167.773438 C 98.957031 165.316406 114.472656 159.324219 128.042969 150.582031 C 119.039062 144.226562 110.164062 136.761719 101.851562 128.445312 Z M 101.847656 128.445312 " fill-opacity="1" fill-rule="nonzero"/><g clip-path="url(#831993ba3b)"><path fill="#000000" d="M 120.921875 61.597656 C 120.558594 61.597656 120.203125 61.632812 119.847656 61.703125 C 119.492188 61.773438 119.148438 61.875 118.8125 62.015625 C 118.476562 62.152344 118.160156 62.324219 117.859375 62.523438 C 117.558594 62.726562 117.28125 62.953125 117.023438 63.210938 C 116.769531 63.464844 116.539062 63.746094 116.339844 64.046875 C 116.136719 64.347656 115.96875 64.664062 115.828125 65 C 115.691406 65.332031 115.585938 65.675781 115.515625 66.03125 C 115.445312 66.386719 115.410156 66.746094 115.410156 67.109375 C 115.410156 67.46875 115.445312 67.828125 115.515625 68.183594 C 115.585938 68.539062 115.691406 68.882812 115.828125 69.21875 C 115.96875 69.550781 116.136719 69.867188 116.339844 70.167969 C 116.539062 70.472656 116.769531 70.75 117.023438 71.003906 C 117.28125 71.261719 117.558594 71.488281 117.859375 71.691406 C 118.160156 71.890625 118.476562 72.0625 118.8125 72.199219 C 119.148438 72.339844 119.492188 72.441406 119.847656 72.511719 C 120.203125 72.585938 120.558594 72.621094 120.921875 72.621094 C 122.140625 72.621094 123.359375 72.683594 124.574219 72.804688 C 125.789062 72.929688 126.992188 73.109375 128.191406 73.347656 C 129.386719 73.589844 130.570312 73.886719 131.734375 74.242188 C 132.902344 74.597656 134.050781 75.011719 135.179688 75.480469 C 136.304688 75.949219 137.40625 76.46875 138.480469 77.046875 C 139.558594 77.621094 140.601562 78.25 141.617188 78.929688 C 142.632812 79.609375 143.609375 80.335938 144.554688 81.109375 C 145.496094 81.882812 146.398438 82.703125 147.261719 83.566406 C 148.125 84.429688 148.941406 85.332031 149.71875 86.277344 C 150.492188 87.21875 151.21875 88.199219 151.894531 89.210938 C 152.574219 90.226562 153.199219 91.273438 153.777344 92.347656 C 154.351562 93.425781 154.875 94.527344 155.34375 95.652344 C 155.808594 96.78125 156.222656 97.929688 156.578125 99.097656 C 156.933594 100.261719 157.230469 101.445312 157.46875 102.640625 C 157.707031 103.839844 157.886719 105.042969 158.007812 106.257812 C 158.128906 107.472656 158.191406 108.691406 158.195312 109.910156 C 158.195312 110.273438 158.230469 110.632812 158.300781 110.988281 C 158.371094 111.34375 158.476562 111.6875 158.613281 112.023438 C 158.753906 112.359375 158.921875 112.675781 159.125 112.980469 C 159.324219 113.28125 159.554688 113.558594 159.8125 113.816406 C 160.066406 114.070312 160.347656 114.300781 160.648438 114.503906 C 160.949219 114.703125 161.269531 114.875 161.601562 115.011719 C 161.9375 115.152344 162.28125 115.253906 162.636719 115.328125 C 162.992188 115.398438 163.351562 115.433594 163.714844 115.433594 C 164.078125 115.433594 164.4375 115.398438 164.792969 115.328125 C 165.148438 115.253906 165.492188 115.152344 165.828125 115.011719 C 166.164062 114.875 166.480469 114.703125 166.78125 114.503906 C 167.085938 114.300781 167.363281 114.070312 167.621094 113.816406 C 167.875 113.558594 168.105469 113.28125 168.304688 112.980469 C 168.507812 112.675781 168.679688 112.359375 168.816406 112.023438 C 168.957031 111.6875 169.058594 111.34375 169.132812 110.988281 C 169.203125 110.632812 169.238281 110.273438 169.238281 109.910156 C 169.234375 108.328125 169.15625 106.75 168.996094 105.179688 C 168.839844 103.605469 168.605469 102.042969 168.296875 100.492188 C 167.984375 98.941406 167.601562 97.40625 167.140625 95.894531 C 166.679688 94.382812 166.144531 92.894531 165.539062 91.433594 C 164.933594 89.972656 164.253906 88.546875 163.507812 87.152344 C 162.761719 85.757812 161.949219 84.402344 161.070312 83.085938 C 160.191406 81.773438 159.25 80.503906 158.246094 79.28125 C 157.242188 78.058594 156.183594 76.886719 155.0625 75.769531 C 153.945312 74.652344 152.773438 73.589844 151.550781 72.585938 C 150.328125 71.582031 149.0625 70.640625 147.746094 69.761719 C 146.429688 68.882812 145.078125 68.070312 143.683594 67.324219 C 142.289062 66.578125 140.859375 65.902344 139.398438 65.292969 C 137.9375 64.6875 136.453125 64.152344 134.9375 63.695312 C 133.425781 63.234375 131.894531 62.847656 130.34375 62.535156 C 128.792969 62.226562 127.230469 61.992188 125.65625 61.835938 C 124.082031 61.679688 122.503906 61.597656 120.921875 61.597656 Z M 120.921875 61.597656 " fill-opacity="1" fill-rule="nonzero"/></g><g clip-path="url(#9024581981)"><path fill="#000000" d="M 120.921875 30.894531 C 120.558594 30.894531 120.203125 30.929688 119.847656 31 C 119.492188 31.070312 119.148438 31.175781 118.8125 31.316406 C 118.476562 31.453125 118.160156 31.625 117.859375 31.824219 C 117.558594 32.023438 117.28125 32.253906 117.023438 32.511719 C 116.769531 32.765625 116.539062 33.042969 116.339844 33.34375 C 116.136719 33.644531 115.96875 33.964844 115.828125 34.296875 C 115.691406 34.632812 115.585938 34.976562 115.515625 35.332031 C 115.445312 35.6875 115.410156 36.046875 115.410156 36.40625 C 115.410156 36.769531 115.445312 37.128906 115.515625 37.484375 C 115.585938 37.835938 115.691406 38.183594 115.828125 38.515625 C 115.96875 38.851562 116.136719 39.167969 116.339844 39.46875 C 116.539062 39.769531 116.769531 40.046875 117.023438 40.304688 C 117.28125 40.5625 117.558594 40.789062 117.859375 40.988281 C 118.160156 41.191406 118.476562 41.359375 118.8125 41.5 C 119.148438 41.636719 119.492188 41.742188 119.847656 41.8125 C 120.203125 41.882812 120.558594 41.917969 120.921875 41.917969 C 122.035156 41.921875 123.144531 41.949219 124.253906 42.003906 C 125.367188 42.0625 126.476562 42.144531 127.582031 42.253906 C 128.6875 42.367188 129.789062 42.503906 130.890625 42.667969 C 131.988281 42.832031 133.085938 43.023438 134.175781 43.242188 C 135.265625 43.460938 136.351562 43.703125 137.429688 43.976562 C 138.507812 44.246094 139.578125 44.546875 140.640625 44.867188 C 141.707031 45.191406 142.761719 45.542969 143.808594 45.917969 C 144.855469 46.292969 145.890625 46.695312 146.917969 47.121094 C 147.945312 47.546875 148.960938 48 149.964844 48.476562 C 150.96875 48.953125 151.960938 49.453125 152.941406 49.976562 C 153.921875 50.503906 154.890625 51.050781 155.84375 51.625 C 156.796875 52.195312 157.734375 52.792969 158.660156 53.410156 C 159.582031 54.027344 160.492188 54.667969 161.382812 55.332031 C 162.277344 55.996094 163.152344 56.679688 164.011719 57.386719 C 164.871094 58.089844 165.714844 58.816406 166.535156 59.566406 C 167.359375 60.3125 168.164062 61.078125 168.949219 61.863281 C 169.738281 62.652344 170.503906 63.457031 171.25 64.28125 C 171.996094 65.105469 172.722656 65.949219 173.425781 66.808594 C 174.132812 67.667969 174.816406 68.542969 175.476562 69.4375 C 176.140625 70.332031 176.78125 71.238281 177.398438 72.164062 C 178.015625 73.089844 178.609375 74.027344 179.179688 74.980469 C 179.753906 75.933594 180.300781 76.902344 180.824219 77.882812 C 181.347656 78.863281 181.847656 79.855469 182.324219 80.863281 C 182.800781 81.867188 183.25 82.882812 183.675781 83.910156 C 184.101562 84.9375 184.5 85.976562 184.875 87.023438 C 185.25 88.070312 185.601562 89.125 185.921875 90.1875 C 186.246094 91.253906 186.542969 92.324219 186.8125 93.402344 C 187.082031 94.480469 187.328125 95.566406 187.542969 96.65625 C 187.761719 97.746094 187.953125 98.84375 188.117188 99.941406 C 188.28125 101.042969 188.414062 102.144531 188.527344 103.25 C 188.636719 104.359375 188.71875 105.464844 188.773438 106.578125 C 188.828125 107.6875 188.855469 108.800781 188.855469 109.910156 C 188.855469 110.273438 188.890625 110.636719 188.960938 110.992188 C 189.035156 111.347656 189.136719 111.695312 189.277344 112.03125 C 189.417969 112.367188 189.585938 112.6875 189.789062 112.988281 C 189.992188 113.292969 190.222656 113.570312 190.480469 113.828125 C 190.734375 114.085938 191.015625 114.316406 191.320312 114.519531 C 191.621094 114.71875 191.941406 114.890625 192.277344 115.03125 C 192.613281 115.167969 192.957031 115.273438 193.316406 115.34375 C 193.671875 115.417969 194.03125 115.453125 194.398438 115.453125 C 194.761719 115.453125 195.121094 115.417969 195.476562 115.34375 C 195.835938 115.273438 196.179688 115.167969 196.515625 115.03125 C 196.851562 114.890625 197.171875 114.71875 197.476562 114.519531 C 197.777344 114.316406 198.058594 114.085938 198.316406 113.828125 C 198.570312 113.570312 198.800781 113.292969 199.003906 112.988281 C 199.207031 112.6875 199.375 112.367188 199.515625 112.03125 C 199.65625 111.695312 199.761719 111.347656 199.832031 110.992188 C 199.902344 110.636719 199.9375 110.273438 199.9375 109.910156 C 199.9375 108.617188 199.90625 107.324219 199.84375 106.035156 C 199.777344 104.742188 199.683594 103.453125 199.558594 102.167969 C 199.429688 100.878906 199.273438 99.597656 199.082031 98.316406 C 198.890625 97.039062 198.671875 95.765625 198.417969 94.496094 C 198.167969 93.226562 197.882812 91.964844 197.570312 90.710938 C 197.253906 89.457031 196.910156 88.210938 196.535156 86.972656 C 196.160156 85.738281 195.753906 84.507812 195.320312 83.292969 C 194.882812 82.074219 194.417969 80.867188 193.921875 79.671875 C 193.429688 78.476562 192.902344 77.296875 192.351562 76.128906 C 191.796875 74.957031 191.21875 73.804688 190.605469 72.664062 C 189.996094 71.523438 189.359375 70.398438 188.695312 69.289062 C 188.03125 68.179688 187.339844 67.085938 186.621094 66.011719 C 185.902344 64.9375 185.15625 63.878906 184.386719 62.839844 C 183.617188 61.804688 182.820312 60.785156 182 59.785156 C 181.179688 58.785156 180.335938 57.804688 179.46875 56.847656 C 178.601562 55.890625 177.707031 54.953125 176.792969 54.039062 C 175.878906 53.125 174.945312 52.234375 173.984375 51.363281 C 173.027344 50.496094 172.046875 49.652344 171.046875 48.832031 C 170.050781 48.011719 169.03125 47.214844 167.992188 46.445312 C 166.953125 45.675781 165.894531 44.929688 164.820312 44.210938 C 163.746094 43.492188 162.652344 42.800781 161.542969 42.136719 C 160.433594 41.472656 159.308594 40.835938 158.167969 40.226562 C 157.027344 39.617188 155.875 39.035156 154.707031 38.480469 C 153.535156 37.929688 152.355469 37.40625 151.160156 36.910156 C 149.964844 36.414062 148.757812 35.949219 147.542969 35.515625 C 146.324219 35.078125 145.097656 34.671875 143.859375 34.296875 C 142.621094 33.921875 141.375 33.578125 140.121094 33.261719 C 138.867188 32.949219 137.605469 32.664062 136.335938 32.414062 C 135.070312 32.160156 133.796875 31.941406 132.515625 31.75 C 131.238281 31.5625 129.953125 31.402344 128.667969 31.277344 C 127.378906 31.148438 126.089844 31.054688 124.800781 30.992188 C 123.507812 30.925781 122.214844 30.894531 120.921875 30.894531 Z M 120.921875 30.894531 " fill-opacity="1" fill-rule="nonzero"/></g><g clip-path="url(#c00b334aea)"><path fill="#000000" d="M 120.921875 0.3125 C 120.558594 0.3125 120.203125 0.347656 119.847656 0.417969 C 119.492188 0.488281 119.148438 0.589844 118.8125 0.730469 C 118.476562 0.867188 118.160156 1.039062 117.859375 1.238281 C 117.558594 1.441406 117.28125 1.667969 117.023438 1.925781 C 116.769531 2.179688 116.539062 2.460938 116.339844 2.761719 C 116.136719 3.0625 115.96875 3.378906 115.828125 3.714844 C 115.691406 4.046875 115.585938 4.390625 115.515625 4.746094 C 115.445312 5.101562 115.410156 5.460938 115.410156 5.824219 C 115.410156 6.183594 115.445312 6.542969 115.515625 6.898438 C 115.585938 7.253906 115.691406 7.597656 115.828125 7.933594 C 115.96875 8.265625 116.136719 8.582031 116.339844 8.882812 C 116.539062 9.183594 116.769531 9.464844 117.023438 9.71875 C 117.28125 9.976562 117.558594 10.203125 117.859375 10.40625 C 118.160156 10.605469 118.476562 10.777344 118.8125 10.914062 C 119.148438 11.054688 119.492188 11.15625 119.847656 11.226562 C 120.203125 11.300781 120.558594 11.335938 120.921875 11.335938 C 122.535156 11.335938 124.144531 11.378906 125.757812 11.460938 C 127.367188 11.539062 128.976562 11.660156 130.578125 11.820312 C 132.183594 11.980469 133.785156 12.179688 135.378906 12.417969 C 136.972656 12.65625 138.5625 12.933594 140.144531 13.25 C 141.726562 13.566406 143.296875 13.921875 144.863281 14.316406 C 146.425781 14.707031 147.980469 15.140625 149.523438 15.609375 C 151.066406 16.078125 152.59375 16.585938 154.113281 17.128906 C 155.632812 17.675781 157.136719 18.253906 158.625 18.875 C 160.113281 19.492188 161.585938 20.144531 163.046875 20.835938 C 164.503906 21.527344 165.941406 22.253906 167.363281 23.015625 C 168.785156 23.773438 170.1875 24.570312 171.570312 25.398438 C 172.953125 26.230469 174.316406 27.09375 175.65625 27.988281 C 176.996094 28.886719 178.316406 29.8125 179.609375 30.773438 C 180.90625 31.734375 182.175781 32.726562 183.421875 33.75 C 184.667969 34.773438 185.890625 35.828125 187.085938 36.910156 C 188.277344 37.992188 189.445312 39.105469 190.585938 40.246094 C 191.726562 41.386719 192.839844 42.554688 193.921875 43.75 C 195.003906 44.945312 196.058594 46.164062 197.082031 47.410156 C 198.105469 48.65625 199.097656 49.929688 200.058594 51.222656 C 201.019531 52.519531 201.949219 53.835938 202.84375 55.175781 C 203.742188 56.515625 204.605469 57.878906 205.433594 59.261719 C 206.261719 60.644531 207.058594 62.046875 207.820312 63.46875 C 208.582031 64.890625 209.304688 66.332031 209.996094 67.789062 C 210.6875 69.246094 211.339844 70.71875 211.957031 72.207031 C 212.578125 73.699219 213.160156 75.203125 213.703125 76.71875 C 214.246094 78.238281 214.753906 79.769531 215.222656 81.3125 C 215.691406 82.855469 216.125 84.40625 216.519531 85.972656 C 216.910156 87.535156 217.265625 89.109375 217.582031 90.6875 C 217.898438 92.269531 218.175781 93.859375 218.414062 95.453125 C 218.652344 97.046875 218.851562 98.648438 219.011719 100.253906 C 219.171875 101.859375 219.292969 103.464844 219.375 105.074219 C 219.453125 106.6875 219.496094 108.296875 219.5 109.910156 C 219.5 110.273438 219.535156 110.632812 219.605469 110.988281 C 219.675781 111.34375 219.78125 111.6875 219.917969 112.023438 C 220.058594 112.359375 220.226562 112.675781 220.429688 112.980469 C 220.628906 113.28125 220.859375 113.558594 221.117188 113.816406 C 221.371094 114.070312 221.652344 114.300781 221.953125 114.503906 C 222.253906 114.703125 222.570312 114.875 222.90625 115.011719 C 223.242188 115.152344 223.585938 115.253906 223.941406 115.328125 C 224.296875 115.398438 224.65625 115.433594 225.019531 115.433594 C 225.382812 115.433594 225.742188 115.398438 226.097656 115.328125 C 226.453125 115.253906 226.796875 115.152344 227.132812 115.011719 C 227.46875 114.875 227.785156 114.703125 228.085938 114.503906 C 228.390625 114.300781 228.667969 114.070312 228.925781 113.816406 C 229.179688 113.558594 229.410156 113.28125 229.609375 112.980469 C 229.8125 112.675781 229.984375 112.359375 230.121094 112.023438 C 230.261719 111.6875 230.363281 111.34375 230.433594 110.988281 C 230.507812 110.632812 230.542969 110.273438 230.542969 109.910156 C 230.539062 108.117188 230.488281 106.328125 230.398438 104.535156 C 230.304688 102.746094 230.171875 100.957031 229.992188 99.175781 C 229.8125 97.390625 229.589844 95.613281 229.324219 93.839844 C 229.054688 92.066406 228.746094 90.300781 228.394531 88.542969 C 228.042969 86.785156 227.644531 85.039062 227.207031 83.300781 C 226.769531 81.5625 226.289062 79.835938 225.765625 78.121094 C 225.242188 76.40625 224.675781 74.703125 224.070312 73.015625 C 223.464844 71.328125 222.816406 69.660156 222.128906 68.003906 C 221.441406 66.347656 220.714844 64.710938 219.945312 63.089844 C 219.175781 61.46875 218.371094 59.871094 217.523438 58.289062 C 216.675781 56.710938 215.792969 55.152344 214.871094 53.613281 C 213.945312 52.078125 212.988281 50.5625 211.988281 49.074219 C 210.992188 47.582031 209.960938 46.117188 208.890625 44.679688 C 207.824219 43.238281 206.71875 41.828125 205.582031 40.441406 C 204.445312 39.054688 203.273438 37.699219 202.070312 36.371094 C 200.863281 35.042969 199.628906 33.746094 198.359375 32.476562 C 197.09375 31.210938 195.792969 29.976562 194.464844 28.769531 C 193.136719 27.566406 191.78125 26.394531 190.394531 25.257812 C 189.007812 24.121094 187.597656 23.019531 186.15625 21.949219 C 184.71875 20.882812 183.253906 19.847656 181.761719 18.851562 C 180.273438 17.855469 178.757812 16.894531 177.222656 15.972656 C 175.683594 15.050781 174.125 14.164062 172.546875 13.320312 C 170.964844 12.472656 169.363281 11.667969 167.746094 10.898438 C 166.125 10.128906 164.488281 9.402344 162.832031 8.714844 C 161.175781 8.027344 159.503906 7.378906 157.816406 6.773438 C 156.128906 6.167969 154.429688 5.605469 152.714844 5.082031 C 151 4.558594 149.273438 4.078125 147.535156 3.640625 C 145.796875 3.203125 144.046875 2.808594 142.289062 2.453125 C 140.53125 2.101562 138.765625 1.792969 136.992188 1.527344 C 135.21875 1.261719 133.441406 1.039062 131.65625 0.859375 C 129.875 0.679688 128.085938 0.542969 126.296875 0.453125 C 124.507812 0.363281 122.714844 0.3125 120.921875 0.3125 Z M 120.921875 0.3125 " fill-opacity="1" fill-rule="nonzero"/></g></svg>