<svg xmlns="http://www.w3.org/2000/svg" xmlns:xlink="http://www.w3.org/1999/xlink" width="225" zoomAndPan="magnify" viewBox="0 0 168.75 225" height="300" preserveAspectRatio="xMidYMid meet" version="1.0"><defs><clipPath id="d3486df5d3"><path d="M 5 32 L 168 32 L 168 224.832031 L 5 224.832031 Z M 5 32 " clip-rule="nonzero"/></clipPath></defs><path fill="#ffffff" d="M 89.019531 2.460938 C 67.132812 0.214844 46.988281 16.515625 47.140625 39.003906 C 47.140625 39.003906 47.140625 107.421875 47.140625 107.421875 C 47.140625 111.570312 47.878906 115.574219 49.214844 119.28125 C 49.214844 119.28125 115.527344 52.964844 125.5625 42.933594 C 127.363281 21.480469 110.816406 2.339844 89.019531 2.460938 Z M 89.019531 2.460938 " fill-opacity="1" fill-rule="nonzero"/><g clip-path="url(#d3486df5d3)"><path fill="#ffffff" d="M 83.683594 143.964844 C 105.570312 146.21875 125.714844 129.902344 125.5625 107.417969 C 125.5625 107.421875 125.5625 84.886719 125.5625 84.886719 L 164.996094 45.453125 C 167.886719 42.5625 167.886719 37.890625 164.996094 35 C 162.105469 32.109375 157.4375 32.109375 154.472656 35 C 147.832031 41.65625 20.347656 169.097656 7.703125 181.765625 C 1 188.730469 11.140625 199.039062 18.230469 192.292969 C 18.230469 192.292969 48.324219 162.199219 48.324219 162.199219 C 57.144531 168.574219 67.597656 172.871094 78.9375 174.207031 L 78.9375 210.007812 L 49.289062 210.007812 C 39.585938 210.15625 39.53125 224.664062 49.289062 224.832031 C 49.289062 224.832031 123.414062 224.832031 123.414062 224.832031 C 133.085938 224.742188 133.117188 210.09375 123.414062 210.007812 C 123.414062 210.007812 93.761719 210.007812 93.761719 210.007812 L 93.761719 174.207031 C 127.472656 170.476562 152.980469 140.375 151.0625 105.863281 C 150.972656 96.199219 136.316406 96.152344 136.238281 105.863281 C 136.238281 105.863281 136.238281 109.941406 136.238281 109.941406 C 137.046875 148.921875 90.695312 173.605469 58.921875 151.597656 C 58.925781 151.597656 69.449219 141.074219 69.449219 141.074219 C 73.824219 142.925781 78.640625 143.964844 83.683594 143.964844 Z M 83.683594 143.964844 " fill-opacity="1" fill-rule="nonzero"/></g><path fill="#ffffff" d="M 29.050781 98.453125 C 22.4375 98.722656 21.136719 104.386719 21.640625 109.941406 C 21.640625 120.613281 24.234375 130.695312 28.902344 139.589844 L 40.097656 128.398438 C 37.726562 122.691406 36.464844 116.464844 36.464844 109.941406 C 36.96875 104.398438 35.664062 98.714844 29.050781 98.453125 Z M 29.050781 98.453125 " fill-opacity="1" fill-rule="nonzero"/></svg>