<svg xmlns="http://www.w3.org/2000/svg" xmlns:xlink="http://www.w3.org/1999/xlink" width="391" zoomAndPan="magnify" viewBox="0 0 293.25 225" height="300" preserveAspectRatio="xMidYMid meet" version="1.0"><defs><clipPath id="5f77f2047b"><path d="M 0 0.285156 L 132 0.285156 L 132 224.710938 L 0 224.710938 Z M 0 0.285156 " clip-rule="nonzero"/></clipPath></defs><g clip-path="url(#5f77f2047b)"><path fill="#ffffff" d="M 127.78125 1.519531 C 125.511719 0.425781 122.804688 0.738281 120.824219 2.316406 L 56.882812 53.496094 L 6.59375 53.496094 C 2.964844 53.496094 0.0195312 56.445312 0.0195312 60.074219 L 0.0195312 165.335938 C 0.0195312 168.972656 2.964844 171.914062 6.59375 171.914062 L 56.882812 171.914062 L 120.832031 223.101562 C 122.015625 224.054688 123.472656 224.542969 124.933594 224.542969 C 125.898438 224.542969 126.871094 224.332031 127.78125 223.890625 C 130.0625 222.792969 131.507812 220.492188 131.507812 217.964844 L 131.507812 7.445312 C 131.507812 4.921875 130.0625 2.609375 127.78125 1.519531 Z M 127.78125 1.519531 " fill-opacity="1" fill-rule="nonzero"/></g><path fill="#ffffff" d="M 182.179688 69.898438 C 179.609375 67.324219 175.453125 67.324219 172.882812 69.898438 C 170.3125 72.46875 170.3125 76.632812 172.882812 79.199219 C 181.582031 87.902344 186.375 99.46875 186.375 111.765625 C 186.375 124.058594 181.582031 135.617188 172.882812 144.328125 C 170.3125 146.902344 170.3125 151.058594 172.882812 153.632812 C 174.164062 154.914062 175.847656 155.558594 177.53125 155.558594 C 179.214844 155.558594 180.898438 154.914062 182.179688 153.632812 C 193.363281 142.441406 199.523438 127.574219 199.523438 111.765625 C 199.523438 95.957031 193.371094 81.089844 182.179688 69.898438 Z M 182.179688 69.898438 " fill-opacity="1" fill-rule="nonzero"/><path fill="#ffffff" d="M 237.972656 14.078125 C 235.402344 11.503906 231.246094 11.503906 228.675781 14.078125 C 226.105469 16.648438 226.105469 20.808594 228.675781 23.378906 C 277.375 72.113281 277.375 151.414062 228.675781 200.15625 C 226.105469 202.726562 226.105469 206.886719 228.675781 209.457031 C 229.957031 210.742188 231.640625 211.386719 233.324219 211.386719 C 235.007812 211.386719 236.691406 210.742188 237.972656 209.457031 C 291.792969 155.59375 291.792969 67.9375 237.972656 14.078125 Z M 237.972656 14.078125 " fill-opacity="1" fill-rule="nonzero"/><path fill="#ffffff" d="M 210.082031 41.984375 C 207.511719 39.414062 203.355469 39.414062 200.785156 41.984375 C 198.214844 44.558594 198.214844 48.714844 200.785156 51.285156 C 216.941406 67.457031 225.84375 88.929688 225.84375 111.757812 C 225.84375 134.585938 216.941406 156.066406 200.785156 172.230469 C 198.214844 174.800781 198.214844 178.960938 200.785156 181.53125 C 202.066406 182.816406 203.75 183.460938 205.433594 183.460938 C 207.117188 183.460938 208.800781 182.816406 210.082031 181.53125 C 228.722656 162.882812 238.984375 138.097656 238.984375 111.757812 C 238.984375 85.417969 228.722656 60.636719 210.082031 41.984375 Z M 210.082031 41.984375 " fill-opacity="1" fill-rule="nonzero"/></svg>